<?xml version="1.0" encoding="UTF-8"?>
<svg id="Layer_1" data-name="Layer 1" xmlns="http://www.w3.org/2000/svg" viewBox="0 0 73.61798 73.61798">
  <defs>
    <style>
      .cls-1 {
        fill: #abca37;
      }

      .cls-2 {
        fill: #fff;
      }
    </style>
  </defs>
  <circle class="cls-1" cx="36.80899" cy="36.80899" r="36.80899"/>
  <g>
    <path class="cls-2" d="M16.6721,27.94931c.19657-.26971,.43171-.27067,.72371-.14742,5.90591,2.49288,11.8137,4.98132,17.72403,7.46371,.30861,.12962,.43601,.31114,.43564,.6516-.00733,6.72382-.00505,13.44765-.00621,20.17148-.00009,.5441-.21212,.69218-.71346,.49171-5.75769-2.30237-11.51329-4.61002-17.2737-6.90555-.4372-.17423-.67862-.5002-.89001-.87929V27.94931Z"/>
    <path class="cls-2" d="M56.15083,27.83717c-5.84723,2.46713-11.69449,4.92912-17.54686,7.38088-.40009,.16924-.54882,.37955-.54369,.81552,.01024,6.64741,.0051,13.28969,.0051,19.93707,0,.70783,.17441,.82582,.82582,.56423,5.61131-2.24144,11.22262-4.48802,16.83903-6.71923,.52832-.21542,.97969-.47701,1.21564-1.0207V27.95c-.22568-.31801-.49241-.24619-.79505-.11283Zm-7.88866,9.80696c.14363-.70269,.52832-1.21561,1.1592-1.56952,.15387-.08719,.30777-.16414,.47701-.25132,.00513,.44623-.04614,.87196-.25132,1.3233-.12823,.30263-.33338,.53859-.56933,.7386-.24109,.20518-.63601,.44113-.88223,.51805-.02051-.23592,.01027-.49238,.06668-.75911Zm4.22646,3.12368c-.06158,1.02583-.30263,2.07217-.75914,3.13905-.30774,.7232-.70783,1.40025-1.22074,2.01062-.54369,.64115-1.12839,1.10275-1.80545,1.26179-.56936,.13333-1.13869,.37955-1.70289,.68729-.58473,.31801-1.09251,.34365-1.57466,.18978-.70783-.22568-1.18997-.73347-1.53362-1.42079-.36418-.73347-.53345-1.59516-.54369-2.55431,.01024-.63088,.07178-1.27202,.31287-1.95421,.30774-.88734,.84632-1.51311,1.59516-1.90803,.54882-.28723,1.09251-.44113,1.62594-.55396,.69759-.14873,1.39002-.46677,2.08757-.90274,.49241-.30774,.98993-.5796,1.49774-.74887,.93861-.32311,1.52335-.02051,1.82085,.80015,.20515,.5745,.24619,1.24128,.20004,1.95424Z"/>
    <path class="cls-2" d="M36.81778,16.95221c.2628,.09529,.53882,.17234,.79513,.29169,5.25588,2.44744,10.50954,4.89966,15.76353,7.35116,.30839,.1439,.63026,.26641,.91811,.44388,.15708,.09685,.35811,.29234,.35245,.43599-.00578,.14678-.21374,.34599-.37851,.41691-1.89901,.81733-3.80639,1.61521-5.71203,2.4171-3.78723,1.59366-7.57588,3.18396-11.3599,4.78521-.27738,.11737-.50456,.11128-.78097-.00554-5.66528-2.39436-11.33547-4.7771-16.99923-7.17506-.18766-.07945-.44015-.29281-.44149-.44569-.00137-.15684,.23961-.37843,.42449-.46517,5.56916-2.613,11.14416-5.21357,16.72029-7.8117,.20959-.09765,.43953-.1516,.69814-.23878Z"/>
  </g>
</svg>