<?xml version="1.0" encoding="UTF-8"?>
<svg id="Layer_1" data-name="Layer 1" xmlns="http://www.w3.org/2000/svg" viewBox="0 0 71.73034 71.73034">
  <defs>
    <style>
      .cls-1 {
        fill: #abca37;
      }

      .cls-2 {
        fill: #fff;
      }
    </style>
  </defs>
  <rect class="cls-1" x="0" y="0" width="71.73034" height="71.73034" rx="35.86513" ry="35.86513"/>
  <g>
    <path class="cls-2" d="M35.57579,57.30155c-.48817-.1904-1.01429-.31746-1.45748-.58295-1.39103-.83326-2.06611-2.10596-1.96015-3.71637,.10378-1.57723,.93254-2.72503,2.3702-3.38443,.31994-.14674,.38474-.30814,.38267-.61872-.01206-1.81518-.00592-3.63048-.00592-5.44573v-.46141h2.51501v.41985c0,1.85715,.00161,3.7143-.00215,5.57144-.00044,.21717,.0055,.37167,.26529,.48214,1.68615,.71702,2.6788,2.37671,2.48692,4.1061-.2,1.80253-1.46885,3.1787-3.27806,3.55853-.05034,.01057-.09523,.04711-.14266,.07155h-1.17367Z"/>
    <path class="cls-2" d="M29.24889,38.38685l1.26013,2.16585c-.63556,.3688-1.30843,.76071-1.9827,1.15019-1.07498,.62096-2.14739,1.24653-3.22923,1.85533-.23036,.12963-.28887,.2622-.2504,.52864,.30674,2.12448-1.21067,4.08265-3.43241,4.45508-2.01107,.33712-4.0737-1.10933-4.48497-3.14515-.3401-1.6835,.34967-3.31886,1.78731-4.2375,1.40247-.89618,3.18991-.82984,4.55494,.18889,.2086,.15568,.34747,.17754,.58076,.04031,1.56305-.9194,3.13744-1.81954,4.7084-2.7255,.16733-.0965,.33622-.19027,.48818-.27615Z"/>
    <path class="cls-2" d="M41.82204,40.54749l1.25635-2.16681,5.49189,3.16914c.60155-.48012,1.26929-.82694,2.04614-.95838,2.10771-.35663,4.17041,1.05735,4.5819,3.15904,.42501,2.17068-.92604,4.26846-3.04827,4.73305-2.74623,.6012-5.24363-1.67958-4.86095-4.45531,.03836-.27823-.08316-.36622-.27641-.47698-1.60995-.92269-3.21658-1.85115-4.82369-2.77879-.13168-.07601-.25942-.15884-.36695-.22496Z"/>
    <path class="cls-2" d="M48.57403,30.12787l-5.49667,3.17325-1.25209-2.16781c.07752-.04826,.19922-.12892,.3254-.2018,1.61883-.93509,3.23618-1.87281,4.86012-2.79895,.21992-.12542,.31172-.23895,.27077-.51832-.3131-2.13613,1.18619-4.09153,3.4074-4.4729,2.01544-.34604,4.08256,1.08611,4.50344,3.12008,.34705,1.67719-.34408,3.33878-1.76678,4.24767-1.42721,.91175-3.21488,.83948-4.59385-.18592-.07801-.05801-.155-.11739-.25773-.19529Z"/>
    <path class="cls-2" d="M30.50032,31.13403l-1.25227,2.16339c-1.07287-.6191-2.16924-1.25192-3.26578-1.88445-.64044-.36943-1.28798-.72725-1.91807-1.11356-.22177-.13597-.36317-.13595-.58293,.02205-1.34174,.96462-2.79078,1.12723-4.2586,.36298-1.47954-.77035-2.20457-2.05039-2.17462-3.72553,.03576-2.00037,1.69626-3.71003,3.71779-3.85346,2.053-.14567,3.93686,1.31271,4.24373,3.30967,.06069,.39492,.06254,.80702,.02747,1.20556-.02201,.25018,.03551,.37186,.24811,.49326,1.64742,.94068,3.28813,1.89311,4.93043,2.84273,.10708,.06192,.21017,.13074,.28474,.17737Z"/>
    <path class="cls-2" d="M37.42013,28.58785h-2.51501v-.43416c0-1.84333-.00677-3.68671,.00692-5.52994,.00218-.29345-.08557-.42649-.3608-.54797-1.78332-.78713-2.71874-2.6392-2.32009-4.53745,.37722-1.79617,2.03044-3.14072,3.88311-3.1581,1.89991-.01782,3.57812,1.30984,3.97606,3.14552,.40832,1.88355-.54098,3.78176-2.30432,4.54596-.29537,.12801-.37617,.27359-.37355,.58134,.01553,1.82923,.00767,3.65867,.00767,5.48803v.44678Z"/>
    <path class="cls-2" d="M31.42236,35.24234c.27072-2.18975,2.04453-3.92804,4.23939-4.15364,2.86313-.29429,5.29069,1.96995,5.279,4.77916-.0109,2.61752-2.17059,4.75681-4.79568,4.75038-2.81229-.00689-5.07887-2.49498-4.7227-5.37589Zm4.71802,1.82811h.0223c.67741,0,1.22655-.54915,1.22655-1.22655h0c0-.67741-.54915-1.22656-1.22655-1.22656h-.0223c-.67741,0-1.22655,.54915-1.22655,1.22655h0c0,.67741,.54915,1.22656,1.22655,1.22656Z"/>
  </g>
</svg>