<?xml version="1.0" encoding="UTF-8"?>
<svg id="Layer_1" data-name="Layer 1" xmlns="http://www.w3.org/2000/svg" viewBox="0 0 71.73034 71.73034">
  <defs>
    <style>
      .cls-1 {
        fill: #abca37;
      }

      .cls-2 {
        fill: #fff;
      }
    </style>
  </defs>
  <rect class="cls-1" x="0" y="0" width="71.73034" height="71.73034" rx="35.86513" ry="35.86513"/>
  <g>
    <path class="cls-2" d="M42.77185,44.34697c-6.69702-1.30682-9.93994-9.16364-6.13165-14.83453,1.25214-1.86462,2.50415-3.72949,3.77136-5.58386,.17987-.26324,.19745-.43567,.00922-.71198-1.79346-2.63245-3.56891-5.2771-5.3476-7.91949-.07404-.10999-.12897-.23291-.19281-.34979h-.08173c-.06537,.11633-.12299,.23792-.19727,.34821-4.12115,6.11969-8.25507,12.23077-12.35999,18.36127-1.48633,2.21973-2.25342,4.70007-2.38208,7.36566-.12933,2.67841,.40759,5.22601,1.64209,7.61115,1.44354,2.78888,3.5575,4.93909,6.33002,6.40588,2.86328,1.51483,5.91833,2.03735,9.13391,1.58795,2.16315-.30237,4.1676-1.0448,5.98956-2.23822,3.08795-2.02264,5.19513-4.8056,6.25409-8.34741,.27808-.93011,.41956-1.901,.64758-2.96411-.22931,.1106-.32599,.15106-.41693,.20203-2.09216,1.17169-4.32239,1.5249-6.66779,1.06726Z"/>
    <path class="cls-2" d="M37.51086,35.62426c.41785,4.04498,4.08569,6.90662,8.14587,6.38123,5.22791-.67657,7.97266-6.74982,5.02618-11.1214-1.90839-2.83148-3.81653-5.66315-5.72552-8.49426-.08105-.12024-.16937-.23547-.27521-.38196-.0885,.11652-.15594,.19678-.21423,.28326-1.94745,2.88727-3.90222,5.76959-5.8371,8.66528-.94318,1.41144-1.29327,2.99036-1.12,4.66785Z"/>
  </g>
</svg>