<?xml version="1.0" encoding="UTF-8"?>
<svg id="Layer_1" data-name="Layer 1" xmlns="http://www.w3.org/2000/svg" viewBox="0 0 19.61466 25.60405">
  <defs>
    <style>
      .cls-1 {
        fill: #abca37;
      }
    </style>
  </defs>
  <path class="cls-1" d="M9.20462,0c.03907,.07154,.07268,.14675,.118,.21408,1.08858,1.6172,2.1752,3.23576,3.27279,4.84683,.11521,.16911,.10445,.27464-.00564,.43575-.77555,1.13492-1.54177,2.27622-2.30812,3.4174-2.33072,3.47068-.34599,8.27917,3.75265,9.07894,1.43545,.2801,2.80035,.06391,4.0808-.65318,.05564-.03116,.11484-.05595,.25515-.12364-.13954,.65064-.22613,1.24486-.39632,1.81408-.64809,2.16766-1.9377,3.87085-3.82757,5.10873-1.11508,.73039-2.34182,1.18477-3.66571,1.36982-1.96798,.27507-3.8377-.04473-5.59009-.97183-1.69683-.89771-2.9906-2.21365-3.87406-3.92051C.26097,19.15675-.06764,17.59757,.01151,15.95835c.07877-1.63136,.54823-3.14939,1.45786-4.50787C3.98165,7.69853,6.51167,3.95845,9.03386,.21312,9.07933,.1456,9.11458,.07119,9.1546,0c.01667,0,.03335,0,.05002,0Z"/>
  <path class="cls-1" d="M15.20349,4.32115c.06476,.08964,.11882,.16019,.16842,.23376,1.16832,1.73268,2.33612,3.46573,3.50411,5.19863,1.80328,2.67546,.12346,6.39239-3.07612,6.80644-2.48486,.32156-4.72967-1.42979-4.98537-3.9054-.10604-1.02665,.10821-1.99295,.68543-2.85678,1.18418-1.77219,2.38054-3.53623,3.57239-5.30329,.03569-.05291,.07696-.10205,.13115-.17336Z"/>
</svg>