<?xml version="1.0" encoding="UTF-8"?>
<svg id="Layer_1" data-name="Layer 1" xmlns="http://www.w3.org/2000/svg" viewBox="0 0 71.73004 71.73004">
  <defs>
    <style>
      .cls-1 {
        fill: #abca37;
      }
    </style>
  </defs>
  <path class="cls-1" d="M61.23004,10.51001C54.73999,4.02002,45.77002,0,35.87,0S17,4.02002,10.51001,10.51001C4.01001,17,0,25.96002,0,35.87006c0,19.81,16.06,35.85999,35.87,35.85999,9.90002,0,18.87-4.01001,25.36005-10.5,6.48999-6.48999,10.5-15.45001,10.5-25.35999s-4.01001-18.87006-10.5-25.36005Zm-29.17004,43c-6.81,1.38-13.35999-2.88995-14.85999-9.66998-.12-.56-.19-1.12-.28998-1.67999v-1.95001c.01996-.08997,.06-.17999,.07001-.27002,.38-3.5,1.94-6.34998,4.65997-8.56995,1.07001-.88,1.59003-1.97003,1.59003-3.35004-.01001-1.62-.03003-3.25,.00995-4.87,.07001-2.59998,1.69-4.78998,4.12006-5.69,.25-.08997,.50995-.16998,.75-.25-.05005-1.28998-.76001-2.13-2.08002-2.41998-.5-.10999-1.01001-.15002-1.56-.22003v-2.38995h.96997c.44,.08997,.88,.15997,1.31,.26996,2.19,.57001,3.48999,2.06,3.78003,4.38,.03998,.26001,.12,.35004,.38,.41003,2.71997,.62,4.72998,2.94995,4.85999,5.72998,.08002,1.64001,.03998,3.27997,.02997,4.90997-.00995,1.02002,.18005,1.97003,.86005,2.79004-.09003,.04999-.15002,.08997-.22003,.12-3.37,1.07001-5.32001,3.44-6.10999,6.79999-.72998,3.15002-.23999,6.21002,.84003,9.21002,.75995,2.09998,1.82996,4.02997,3.29999,5.72998,.03998,.03998,.06,.08002,.16998,.22998-.89001,.26001-1.71997,.58002-2.58002,.75Zm25.96002-9.28998c-.66998,2.59998-1.78003,4.96997-3.60999,6.95001-.5,.53998-1.08002,1.03998-1.69,1.45001-2.28003,1.50995-4.59003,1.46997-6.89001,.01996-.09998-.07001-.21002-.13-.31-.20001-.01001-.00995-.02002-.00995-.07001-.01996-1.16998,.81-2.41998,1.32996-3.85999,1.29999-1.79999-.03003-3.26001-.82001-4.52002-2.01001-1.92999-1.83002-3.10999-4.10999-3.89996-6.60999-.66003-2.10004-.92004-4.23999-.58002-6.44,.45001-2.91003,2.33997-5.09003,5-5.65002,2.20996-.47998,4.22998,.08002,6.09998,1.28003,.10999,.07001,.22003,.14001,.38,.23999,.22003-1.84998,.81-3.48999,2.09003-4.82001,.75-.77997,1.63995-1.35999,2.70001-1.77997,.29999,.73999,.58997,1.46997,.90997,2.23999-2.04999,.85999-3.03998,2.45001-3.27002,4.57001,.69-.39001,1.35004-.83002,2.04999-1.16003,1.65002-.75,3.38-1,5.14001-.48999,2.58002,.75,3.98999,2.58002,4.57001,5.10999,.46002,2.02002,.27002,4.04004-.23999,6.02002Z"/>
</svg>