<?xml version="1.0" encoding="UTF-8"?>
<svg id="Layer_1" data-name="Layer 1" xmlns="http://www.w3.org/2000/svg" viewBox="0 0 32.54106 22.60786">
  <defs>
    <style>
      .cls-1 {
        fill: #abca37;
      }
    </style>
  </defs>
  <path class="cls-1" d="M6.60008,16.78235c.04033-.88645-.0001-1.78566,.13765-2.65671,.29536-1.86756,1.95409-3.18797,3.8193-3.14123,1.91665,.04802,3.55277,1.44449,3.69579,3.34765,.12014,1.59874,.1253,3.21954,.01392,4.81891-.14284,2.051-1.89147,3.51363-3.92131,3.45498-1.98868-.05746-3.61187-1.68144-3.69927-3.72644-.0298-.69732-.00473-1.39698-.00473-2.09557l-.04135-.00159Zm2.54325-.01209c0,.65397-.01224,1.30823,.00308,1.96183,.01938,.82705,.56188,1.3789,1.33129,1.38269,.7651,.00376,1.33793-.5556,1.34858-1.37041,.01709-1.30772,.01833-2.61603-.0009-3.92369-.01168-.79465-.61768-1.37083-1.36704-1.3569-.73003,.01358-1.28779,.57088-1.31023,1.34468-.01895,.65342-.0039,1.30782-.00477,1.96179Z"/>
  <path class="cls-1" d="M15.974,16.7475c-.0009-.67741-.02359-1.35572,.0033-2.03206,.08507-2.13931,1.77995-3.76561,3.86855-3.73267,2.09448,.03303,3.75815,1.70084,3.7894,3.82611,.01961,1.33339,.02278,2.66765-.00121,4.00089-.03759,2.08913-1.70725,3.76325-3.75433,3.79753-2.09679,.03511-3.80456-1.57428-3.89972-3.70085-.03214-.71829-.00509-1.43922-.006-2.15895Zm5.16497,.06117c0-.65397,.01542-1.30838-.00389-1.96178-.02435-.82396-.58029-1.3842-1.33793-1.38364-.74664,.00055-1.33664,.57866-1.34857,1.38211-.01941,1.30764-.02198,2.6161,.00171,3.9236,.0146,.80613,.61349,1.36051,1.37724,1.3444,.74531-.01572,1.2779-.54636,1.30513-1.343,.02232-.65319,.00455-1.30774,.00631-1.96169Z"/>
  <path class="cls-1" d="M16.63849,8.84418c-2.8351,.32869-5.64797-2.13833-5.82547-5.00572-.06494-1.04909,.03593-2.06863,.52973-3.02047C11.60797,.30674,12.00956-.0131,12.59799,.00041c2.078,.04772,3.74062,.92863,4.80782,2.70151,1.04975,1.74389,1.09672,3.60093,.18628,5.45071-.02524,.05128-.07778,.08914-.16889,.19009-.73149-1.19171-1.44646-2.35682-2.16185-3.52168-.11055-.18002-.1841-.41898-.34457-.5228-.19322-.12501-.46106-.13471-.69659-.19432-.02328,.22647-.14522,.50891-.05367,.67023,.55243,.97354,1.15366,1.9194,1.73871,2.87443,.22967,.37492,.45972,.7496,.73326,1.19559Z"/>
  <path class="cls-1" d="M2.53151,14.563c-.32206,.181-.53126,.31652-.75502,.42083-.58659,.27345-1.21454,.09156-1.55915-.43751-.34399-.52812-.28899-1.21804,.23192-1.59499,.88877-.64314,1.80118-1.26222,2.75026-1.81079,.80219-.46367,1.76936,.09435,1.77747,1.02048,.02705,3.08578,.02023,6.172,.00335,9.25792-.00383,.69935-.56164,1.1933-1.22979,1.18714-.69074-.00637-1.20761-.52156-1.21296-1.27288-.01415-1.98682-.00561-3.97382-.00608-5.96074-.00005-.23034,0-.46067,0-.80946Z"/>
  <path class="cls-1" d="M31.93379,12.368c-.02506,.08762-.06019,.27549-.13113,.44871-1.21539,2.96768-2.4358,5.93331-3.65353,8.90004-.2424,.59056-.66341,.93849-1.31574,.87686-.58739-.0555-.9786-.41161-1.0814-.99272-.04486-.25353-.00076-.55517,.0973-.79666,1.21442-2.99083,2.44177-5.97646,3.67703-8.95876,.28149-.67961,.81681-.96118,1.45902-.82327,.58666,.12598,.97086,.62889,.94845,1.34582Z"/>
  <path class="cls-1" d="M18.29312,2.30795c.07381-.06906,.09922-.10914,.13511-.1241,2.20988-.92097,3.18629-.47599,3.31349,2.01492,.11438,2.23986-1.18366,3.95311-3.37102,4.54155,1.02285-2.17059,.98968-4.30047-.07758-6.43237Z"/>
  <path class="cls-1" d="M25.13903,12.79187c.00043-.69476,.55416-1.24607,1.24148-1.23606,.68931,.01004,1.2279,.57361,1.21237,1.26859-.01486,.66479-.54947,1.19476-1.21382,1.20327-.69623,.00892-1.24046-.53346-1.24003-1.23581Z"/>
  <path class="cls-1" d="M32.54093,20.7748c.0099,.68382-.54664,1.2446-1.23696,1.24637-.67421,.00173-1.20576-.50908-1.22975-1.18177-.02469-.69185,.51195-1.26644,1.19735-1.28207,.68544-.01563,1.25948,.53494,1.26936,1.21747Z"/>
</svg>