<?xml version="1.0" encoding="UTF-8"?>
<svg id="Layer_1" data-name="Layer 1" xmlns="http://www.w3.org/2000/svg" viewBox="0 0 73.61798 73.61798">
  <defs>
    <style>
      .cls-1 {
        fill: #abca37;
      }

      .cls-2 {
        fill: #fff;
      }
    </style>
  </defs>
  <circle class="cls-1" cx="36.80899" cy="36.80899" r="36.80899"/>
  <g>
    <path class="cls-2" d="M55.96024,43.98843v1.76603c-.12906,.68777-.19871,1.39318-.39688,2.06042-1.21969,4.10677-3.8547,6.88334-8.01767,7.95129-4.08587,1.04817-7.62586-.15866-10.55881-3.1534-.50354-.51415-.91734-1.1162-1.37505-1.68068-.0016,.00055-.0174,.00107-.0248,.00922-.07724,.08501-.15224,.17205-.22953,.25702-2.27687,2.50319-5.08798,3.48989-8.38352,2.71733-4.91482-1.15217-7.70837-6.32098-6.11854-11.15368,.07491-.22769,.1341-.37818-.14182-.56527-2.95437-2.00323-4.34599-4.77719-3.99388-8.35619,.34386-3.49521,3.05685-6.5707,6.47091-7.35666,.69157-.15921,1.40576-.22016,2.12515-.32876,.43296-3.18379,2.06394-5.5129,5.21142-6.47733,3.16445-.96964,5.79434,.09302,7.91115,2.55633,4.60831-3.6086,10.45675-2.58534,13.7997,.82027,3.54021,3.60657,4.23992,9.71503,.67243,14.17399,.07878,.09392,.15844,.19231,.24167,.28758,1.10154,1.261,1.91328,2.6859,2.35593,4.30215,.19482,.71137,.30405,1.44617,.45214,2.17034Zm-9.29122-7.95572c.00746-2.73811-2.22143-4.98363-4.9609-4.99792-2.72531-.01421-4.98578,2.2314-4.99752,4.96467-.01172,2.73038,2.23236,4.98778,4.96458,4.99403,2.74082,.00628,4.98639-2.22442,4.99384-4.96078Zm-14.55746,4.90874c1.23816,.00611,2.30507-.40611,3.16447-1.3098,.5359-.56351,.5616-1.26525,.077-1.73931-.49117-.4805-1.15121-.40251-1.73941,.12448-.28345,.25395-.64737,.49173-1.01078,.56999-1.54534,.33279-3.07158-.89606-3.12641-2.48095-.03616-1.04528,.3942-1.87342,1.28853-2.4122,.9365-.5642,1.89358-.52431,2.83313,.03393,.62853,.37344,1.29988,.24335,1.65215-.31113,.36017-.5669,.17602-1.25246-.44748-1.64682-.8205-.51896-1.71545-.77115-2.6887-.76904-2.72026,.0059-4.94674,2.23774-4.94751,4.96944-.00077,2.73038,2.22379,4.96695,4.94501,4.97141Zm15.66037,5.96807c.09376-.13896,.13889-.2002,.17819-.26497,.45553-.75071,1.0084-1.46091,1.34321-2.26218,.57652-1.37972-.20593-2.9081-1.61899-3.39409-1.40222-.48226-2.92294,.26658-3.39901,1.67376-.25908,.76578-.00134,1.39367,.65502,1.64577,.52303,.20089,1.33105-.07448,1.50911-.84907,.00286-.01244,.00476-.02542,.00983-.03696,.09418-.21467,.24888-.33805,.48435-.24694,.23128,.0895,.29905,.28108,.18683,.49958-.14531,.28294-.29458,.56803-.47873,.82608-.65309,.91515-1.32398,1.81756-1.98349,2.72816-.29771,.41106-.4045,.85373-.15453,1.32857,.24614,.46757,.65342,.65741,1.16793,.65624,.95867-.00217,1.91741,.00593,2.87599-.00337,.6876-.00667,1.18791-.49638,1.1916-1.14112,.00375-.65558-.51452-1.14946-1.21878-1.15899-.22509-.00305-.45026-.00048-.74854-.00048Z"/>
    <path class="cls-2" d="M20.79315,16.80688c.53136,.23344,1.11649,.38959,1.58398,.71483,1.3938,.96966,1.86011,2.79316,1.18265,4.33725-.68587,1.56327-2.34449,2.42354-4.02732,2.08884-1.61146-.32051-2.83111-1.75446-2.8817-3.38803-.05335-1.72277,1.05347-3.20493,2.71304-3.63618,.12012-.03121,.23634-.07745,.35437-.1167h1.07498Z"/>
    <path class="cls-2" d="M41.68795,38.68934c-1.47582-.00166-2.69027-1.22718-2.67204-2.69641,.01816-1.46388,1.22214-2.65542,2.68025-2.65256,1.47749,.0029,2.67916,1.21826,2.66859,2.69899-.01044,1.46229-1.21182,2.65163-2.67679,2.64998Z"/>
  </g>
</svg>