<?xml version="1.0" encoding="UTF-8"?>
<svg id="Layer_1" data-name="Layer 1" xmlns="http://www.w3.org/2000/svg" viewBox="0 0 73.61798 73.61798">
  <defs>
    <style>
      .cls-1 {
        fill: #abca37;
      }

      .cls-2 {
        fill: #fff;
      }
    </style>
  </defs>
  <circle class="cls-1" cx="36.80899" cy="36.80899" r="36.80899"/>
  <g>
    <path class="cls-2" d="M35.76284,58.09638c-.7837-.16115-1.58295-.269-2.34855-.49224-4.48268-1.30713-7.76484-5.29834-8.13689-9.95428-.32332-4.04619,1.1382-7.36919,4.25303-9.96257,.22446-.18689,.31796-.36718,.31743-.66032-.00886-4.86348-.01527-9.727-.00288-14.59046,.00859-3.37219,2.2247-6.08441,5.49774-6.7726,4.08046-.85796,8.09516,2.27292,8.14996,6.45474,.06299,4.80725,.03124,9.61598,.0049,14.42387-.00343,.62519,.18828,1.00451,.65229,1.42619,3.52733,3.20558,4.81824,7.18965,3.52425,11.76821-1.2984,4.59415-4.49005,7.30732-9.19294,8.20948-.26843,.0515-.53743,.10006-.80617,.14999h-1.91215Zm4.59041-27.66888c0-2.6735,.00006-5.347-.00032-8.0205-.00001-.06921-.00453-.13844-.00726-.20764-.10762-2.73193-3.12288-4.40085-5.48649-3.02073-1.28418,.74984-1.86488,1.90276-1.86221,3.38669,.00957,5.31928-.00063,10.63859,.01289,15.95785,.00096,.37703-.10948,.61215-.42076,.81219-.36006,.23138-.69308,.50598-1.03077,.77083-2.9583,2.3202-3.9763,6.25437-2.5269,9.75627,1.40081,3.38453,4.94682,5.44062,8.63395,5.00624,6.22151-.73297,9.41071-7.90427,5.79673-13.01927-.75004-1.06157-1.74368-1.84873-2.78735-2.58474-.24015-.16935-.32906-.35398-.32777-.65049,.01194-2.72886,.00704-5.45779,.00625-8.1867Z"/>
    <path class="cls-2" d="M49.88263,23.84381c-.96871,0-1.93743,.0039-2.90611-.0011-.93419-.00482-1.5867-.62493-1.58632-1.49659,.00038-.87207,.65204-1.49176,1.58813-1.49383,1.9374-.00427,3.87483-.00413,5.81223-.00004,.92816,.00196,1.59374,.6332,1.59336,1.4956-.00038,.86201-.66592,1.49015-1.59517,1.49485-.96868,.00491-1.93741,.00109-2.90611,.0011Z"/>
    <path class="cls-2" d="M49.86223,36.66177c-.96859,.00002-1.93722,.00585-2.90575-.00167-.91693-.00712-1.55782-.61476-1.56639-1.46826-.00878-.87454,.63488-1.51465,1.56654-1.51938,1.95096-.00991,3.90204-.00968,5.85301,.00001,.92319,.00459,1.58552,.65917,1.57484,1.51952-.01048,.84388-.66434,1.46069-1.57499,1.46799-.98236,.00787-1.96483,.00178-2.94726,.00179Z"/>
    <path class="cls-2" d="M48.37769,30.25118c-.49847,.00013-.99707,.0076-1.49537-.00155-.83191-.01526-1.46318-.6221-1.49056-1.42043-.02861-.83398,.55602-1.52772,1.39315-1.55648,1.06484-.03659,2.13288-.03679,3.19768,.00046,.8096,.02832,1.42179,.73594,1.40001,1.52116-.02265,.81657-.6646,1.44033-1.50954,1.45511-.49831,.00872-.9969,.00159-1.49537,.00173Z"/>
    <path class="cls-2" d="M35.18088,40.82886v-.48296c.00002-4.07332-.00201-8.14663,.00138-12.21994,.00094-1.13351,.95615-1.86887,1.97204-1.53098,.61696,.20521,1.01294,.7632,1.01743,1.46497,.00691,1.08063,.00206,2.16134,.00208,3.24201,.00004,3.02035,.00002,6.0407,.00002,9.06105v.47704c1.74129,.51497,3.0565,1.54209,3.85932,3.17305,.62811,1.27605,.77252,2.61463,.4553,4.00192-.62761,2.74471-3.16808,4.67224-6.04872,4.58947-2.75983-.0793-5.20338-2.24118-5.65774-4.97199-.44002-2.64461,.96299-5.76677,4.39891-6.80365Z"/>
  </g>
</svg>