<?xml version="1.0" encoding="UTF-8"?>
<svg id="Layer_1" data-name="Layer 1" xmlns="http://www.w3.org/2000/svg" viewBox="0 0 26.89806 26.89923">
  <defs>
    <style>
      .cls-1 {
        fill: #abca37;
      }
    </style>
  </defs>
  <path class="cls-1" d="M0,15.55175c.086-.52453,.15133-1.05342,.26127-1.57288,.85995-4.06331,4.30717-7.3864,8.3977-8.09443,.22407-.03878,.48184-.05365,.68907,.01933,.35026,.12335,.47176,.43753,.47122,.80194-.00229,1.54069-.00091,3.08138-.0009,4.62207,.00002,1.59321,.00651,3.18648-.00497,4.77961-.00259,.35885,.10985,.63216,.36418,.88522,2.19676,2.18571,4.38572,4.37925,6.57683,6.57064,.55025,.55032,.50585,1.02166-.1371,1.4652-6.14931,4.24212-14.69029,.91124-16.34749-6.38047C.14832,18.11344,.08849,17.56489,0,17.02286c0-.49037,0-.98074,0-1.47111Z"/>
  <path class="cls-1" d="M12.45191,0c.55742,.10202,1.11866,.18672,1.67168,.30871,6.03893,1.33206,10.81272,5.95229,12.34539,11.96707,.19155,.7517,.30079,1.52608,.4171,2.29466,.08314,.5494-.2739,.93375-.83157,.93399-4.8238,.00207-9.6476,.00123-14.47139,.00085-.05119,0-.10239-.00558-.18857-.01058v-.31248c0-4.7275,.00453-9.45501-.00694-14.18248-.00116-.47819,.15344-.80866,.59144-.99973h.47286Z"/>
  <path class="cls-1" d="M12.51648,17.08196h.34611c3.36126,0,6.72252-.00007,10.08378,.00005,.78639,.00003,1.07707,.334,.96798,1.11492-.32529,2.32877-1.21552,4.42073-2.64164,6.2867-.3587,.46933-.86456,.50408-1.28396,.08518-2.44009-2.4372-4.8781-4.87647-7.31655-7.31532-.03653-.03654-.06966-.07648-.15572-.17153Z"/>
</svg>