<?xml version="1.0" encoding="UTF-8"?>
<svg id="Layer_1" data-name="Layer 1" xmlns="http://www.w3.org/2000/svg" viewBox="0 0 71.73034 71.73034">
  <defs>
    <style>
      .cls-1 {
        fill: #abca37;
      }

      .cls-2 {
        fill: #fff;
      }
    </style>
  </defs>
  <rect class="cls-1" x="0" y="0" width="71.73034" height="71.73034" rx="35.86513" ry="35.86513"/>
  <g>
    <path class="cls-2" d="M32.45861,40.3068c-.39063-.38866-.56339-.80844-.55936-1.35965,.01762-2.44678,.00769-4.89394,.00759-7.34091,0-2.36626-.00206-4.73261,.00141-7.09896,.00084-.55964-.1858-1.04223-.72369-1.23169-.31835-.11202-.71423-.08924-1.05836-.02962-6.28255,1.08742-11.57715,6.19125-12.89789,12.43208-.16883,.79785-.26923,1.61013-.40131,2.41575v2.25939c.13593,.83253,.2278,1.67509,.41444,2.496,2.54521,11.19927,15.66321,16.3151,25.1078,9.79969,.98749-.68123,1.05573-1.40511,.21055-2.25039-3.36527-3.36574-6.72727-6.73477-10.10117-10.0917Z"/>
    <path class="cls-2" d="M57.48026,33.06226c-2.35398-9.23798-9.68598-16.33413-18.96108-18.37997-.84931-.18739-1.71137-.31751-2.56752-.47415h-.72623c-.6727,.29351-.91015,.80103-.90837,1.53551,.01762,7.26085,.01069,14.5217,.01069,21.78255v.47996c.13236,.00769,.21092,.01622,.28957,.01622,7.40878,.00066,14.81755,.00187,22.22633-.00122,.85653-.00037,1.40492-.59077,1.27725-1.43455-.17867-1.18041-.34647-2.36982-.64064-3.52436Z"/>
    <path class="cls-2" d="M52.06998,40.44413c-5.16251-.00019-10.32502-.00009-15.48753-.00009h-.53162c.13218,.14596,.18308,.20727,.23923,.26342,3.74512,3.74578,7.48968,7.49221,11.23733,11.23545,.64411,.64345,1.42105,.59002,1.97197-.13077,2.1904-2.86591,3.55763-6.07894,4.05728-9.6557,.16752-1.19935-.27888-1.71231-1.48667-1.71231Z"/>
  </g>
</svg>