<svg id="Layer_1" data-name="Layer 1" xmlns="http://www.w3.org/2000/svg" viewBox="0 0 1413.25977 285.0025">
  <defs>
    <style>
      .cls-1 {
        fill: #8eba00;
      }

      .cls-2 {
        fill: #ffcb1a;
      }

      .cls-3 {
        fill: #fff;
      }
    </style>
  </defs>
  <path class="cls-1" d="M101.0977,64.05409s-4.787-33.19748,12.736-50.72049S164.5542.5976,164.5542.5976s4.787,33.19747-12.736,50.72046C134.29517,68.8411,101.0977,64.05409,101.0977,64.05409Z"/>
  <g>
    <path class="cls-2" d="M29.96631,255.32182Q0,225.9312,0,181.40484q0-44.521,29.96631-73.9165,30.24682-29.67847,74.77246-29.68067,44.521,0,74.77246,29.68067,30.24756,29.39868,30.25147,73.9165,0,44.521-30.25147,73.917-30.25341,29.68506-74.77246,29.68067Q60.21778,285.0025,29.96631,255.32182Zm74.77246-13.69921q24.54126,0,41.38184-17.123,16.54832-17.40525,16.55273-43.09473,0-25.96579-16.55273-42.80859-16.555-17.40381-41.38184-17.40918-24.54784,0-41.09668,17.40918Q47.08716,155.439,47.08936,181.40484q0,25.686,16.55273,43.09473Q80.19043,241.62215,104.73877,241.62261Z"/>
    <path class="cls-3" d="M273.12012,172.55816V281.29254H231.45264V132.88824H370.72412v148.4043H329.05664V172.55816Z"/>
    <path class="cls-3" d="M431.5127,281.29254V172.55816H385.56445V132.88824H519.12793v39.66992H473.17969V281.29254Z"/>
    <path class="cls-3" d="M580.20117,215.65191v65.64063h-45.377V81.51763h90.75439q30.53467,0,51.37061,19.40673,20.82861,19.12355,20.833,47.66114,0,28.82813-20.833,47.94532-20.26758,19.12355-51.37061,19.12109Zm45.37744-92.46679H580.20117v50.7998h45.37744a24.13031,24.13031,0,0,0,17.9795-7.27735,26.58339,26.58339,0,0,0,0-36.24511A24.13026,24.13026,0,0,0,625.57861,123.18512Z"/>
    <path class="cls-3" d="M716.61816,281.29254V132.88824h41.668v43.665h37.38575q22.82958,0,38.52832,15.126,15.41014,14.84325,15.41113,37.10059,0,22.83693-15.41113,37.67187-14.84326,14.84327-38.52832,14.84083Zm79.91016-64.78418H758.28613v24.8291h37.10059a9.874,9.874,0,0,0,7.70508-3.56739,13.11051,13.11051,0,0,0,3.13965-8.99023,12.691,12.691,0,0,0-2.85352-8.13281A10.55772,10.55772,0,0,0,796.52832,216.50836Zm106.45117,64.78418h-41.667V132.88824h41.667Z"/>
    <path class="cls-3" d="M969.76074,225.92632v55.36622h-41.667V132.88824h41.667v53.083h59.07617v-53.083h41.667v148.4043h-41.667V225.92632Z"/>
    <path class="cls-3" d="M1113.02734,262.74175q-22.54833-22.541-22.54589-55.65136,0-33.10253,22.54589-55.36621,22.541-22.541,56.793-22.5459,33.95947,0,56.50781,22.5459,22.82814,22.26123,22.83106,55.36621,0,32.82277-22.83106,55.65136-22.83544,22.26123-56.50781,22.26075Q1135.57374,285.0025,1113.02734,262.74175Zm56.793-19.97754q14.83594,0,24.54395-10.27343a35.1091,35.1091,0,0,0,10.27344-25.40039,34.16531,34.16531,0,0,0-10.27344-25.11426q-9.70607-10.55565-24.54395-10.55957a33.22428,33.22428,0,0,0-24.8291,10.27441,37.28966,37.28966,0,0,0,0,50.79981A33.22715,33.22715,0,0,0,1169.82031,242.76421Z"/>
    <path class="cls-3" d="M1310.51855,214.22515v67.06739h-41.667V132.88824h41.667v61.64453l45.94825-61.64453h50.51465l-53.083,71.63379,59.36133,76.77051h-51.3711Z"/>
  </g>
</svg>
