<svg id="Layer_1" data-name="Layer 1" xmlns="http://www.w3.org/2000/svg" viewBox="0 0 209.7627 285.0025">
  <defs>
    <style>
      .cls-1 {
        fill: #6e921c;
      }

      .cls-2 {
        fill: #ffcb1a;
      }
    </style>
  </defs>
  <path class="cls-1" d="M101.0977,64.05409s-4.787-33.19748,12.736-50.72049S164.5542.5976,164.5542.5976s4.787,33.19747-12.736,50.72046C134.29517,68.8411,101.0977,64.05409,101.0977,64.05409Z"/>
  <path class="cls-2" d="M29.96631,255.32182Q0,225.9312,0,181.40484q0-44.521,29.96631-73.9165,30.24682-29.67847,74.77246-29.68067,44.521,0,74.77246,29.68067,30.24756,29.39868,30.25147,73.9165,0,44.521-30.25147,73.917-30.25341,29.68506-74.77246,29.68067Q60.21778,285.0025,29.96631,255.32182Zm74.77246-13.69921q24.54126,0,41.38184-17.123,16.54832-17.40525,16.55273-43.09473,0-25.96579-16.55273-42.80859-16.555-17.40381-41.38184-17.40918-24.54784,0-41.09668,17.40918Q47.08716,155.439,47.08936,181.40484q0,25.686,16.55273,43.09473Q80.19043,241.62215,104.73877,241.62261Z"/>
</svg>
