<?xml version="1.0" encoding="UTF-8"?>
<svg id="Layer_1" data-name="Layer 1" xmlns="http://www.w3.org/2000/svg" viewBox="0 0 171.08498 171.08498">
  <defs>
    <style>
      .cls-1 {
        opacity: .75;
      }

      .cls-2 {
        fill: #fcdb5a;
      }
    </style>
  </defs>
  <rect class="cls-2" width="171.08498" height="171.08498"/>
  <g class="cls-1">
    <path d="M95.48753,106.5825v37.23998h-7.57001v-37.23999c0-.31,0-.60999-.02002-.92999,0-.27002-.01001-.52002-.02002-.78003l-.06-1.17999c-.00995-.13995-.00995-.17999-.00995-.22998-.05005-.47998-.09003-.98999-.14001-1.5-.01001-.10999-.01001-.16998-.02002-.22998l-.02002-.14001c-.04999-.46002-.09998-.90997-.15997-1.38l-.02002-.16998c-.01996-.06-.02997-.17999-.04999-.29999l-.01001-.10004c-.07996-.52002-.15997-1.04999-.26001-1.57001l-.00995-.13c-.10004-.51996-.23004-1.13995-.36005-1.72998-.13-.59998-.25995-1.17999-.40997-1.75-.17999-.67999-.34003-1.27002-.52002-1.84998-.09998-.37-.21997-.72003-.32996-1.07001h-.02002l-.10004-.37c-.04999-.14001-.08997-.28003-.13995-.42004l-.09003-.23999c-.01001-.03998-.02997-.07996-.03998-.12-1.87,5.34003-2.82001,10.92999-2.82001,16.62v36.81h-7.57001l.03998-38.32996c.05005-1.83002,.16003-3.47003,.33002-5.02002,.20001-1.75,.47998-3.5,.83002-5.20001,.37-1.77997,.83002-3.54999,1.34998-5.27002,.94-3.07996,2.16003-6.13995,3.64001-9.07996,1.15002-2.26001,2.41998-4.42999,3.78998-6.42999l.42004-.61005,.40997,.62c1.41998,2.10004,2.69,4.27002,3.77002,6.44,1.47998,2.91003,2.70996,5.97003,3.64001,9.07001,1.03998,3.35004,1.77997,6.87,2.17999,10.46002,.20996,1.77002,.32996,3.65997,.34998,5.60999h.01001l.01001,.5v-.00002Z"/>
    <path d="M111.21751,31.86253l-1.19,.35999c-6.65997,2.02002-13.04999,4.96002-19,8.71997-1.90002,1.20001-3.78998,2.51001-5.62,3.91003l-.29999,.22998-.29999-.22998c-1.78003-1.35999-3.68005-2.67999-5.64001-3.91998-5.77002-3.65002-11.97003-6.51001-18.41998-8.52002l-.93005-.29004,.02002-.01996-.13-.04004,.92999-.56c2.73004-1.62,5.60004-2.96997,8.55005-4.00995l.16998-.07001,.17999,.07001c5.41998,2.17999,10.65997,4.94,15.57001,8.22998,4.98999-3.35004,10.35999-6.16998,15.96997-8.39001l.17004-.07001,.17999,.06c3.03998,1.04999,5.96997,2.39001,8.70996,3.98999l.05005,.03003,1.02998,.52002Z"/>
    <path d="M134.28752,77.0925l-.04999,.5c-.19,2.27997-.52002,4.5-1,6.59998l-.09003,.39001h-.39996c-4.28003,0-8.41003,1.20001-11.99005,3.47998-2.13,1.35004-3.98999,3.01001-5.52997,4.95001-3.22003,4.01001-4.91998,8.85999-4.91998,14,0,2.54004,.41998,5.04004,1.25995,7.44l.13,.37-.32996,.22003c-.74005,.46997-1.5,.90997-2.26001,1.32001-1.14001,.63995-2.37,1.25-3.65002,1.82001l-.47998,.20996-.19-.48999c-1.35999-3.45001-2.04999-7.12-2.04999-10.89001,0-5.64001,1.57996-11.13,4.57001-15.88,1.46997-2.38,3.28998-4.54999,5.38995-6.42999,1.72003-1.56,3.65002-2.92999,5.74005-4.04999,4.33997-2.38,9.28998-3.63,14.28998-3.63,.34998,0,.70001,.01001,1.04999,.03003l.51001,.03998v-.00003Z"/>
    <path d="M134.31749,70.46251l-.56-.02002c-6.14996-.19-12.06995,1.16003-17.5,3.92004-1.89996,.94995-3.77997,2.12-5.57996,3.47998-1.89001,1.44-3.65002,3.06-5.23004,4.81-1.78998,2.02002-3.35999,4.22998-4.66998,6.56l-.58002,1.04999-.32996-1.14996c-.78003-2.67999-1.72003-5.28003-2.78003-7.73004-1.06-2.44-2.26001-4.82996-3.58002-7.08997-1.17999-2-2.44-3.90002-3.73999-5.65002-1.39996-1.91998-2.95996-3.82001-4.65997-5.64996-1.69,1.81-3.26001,3.70996-4.66998,5.64996-1.36005,1.84003-2.62006,3.73999-3.72003,5.65002-1.34998,2.28998-2.56,4.66998-3.59998,7.08997-1.09003,2.53003-2.02002,5.14001-2.77002,7.73999l-.33002,1.15002-.58997-1.04999c-1.33002-2.38-2.90002-4.58002-4.67999-6.54999-1.58002-1.78003-3.33002-3.40002-5.21002-4.83002-1.72998-1.31-3.60999-2.48999-5.59003-3.48999-5.13995-2.60004-10.67999-3.91998-16.47998-3.91998h-.70001l.04004-.54004c.16998-2.21997,.48999-4.45001,.94995-6.62l.09003-.40002,.40997,.01001c6.64001,.11005,13.01001,1.66003,18.93005,4.62,2.01996,1.02002,3.94995,2.17004,5.72998,3.43005,1.66998,1.17999,3.29999,2.50995,4.83997,3.96997,.98004-1.96002,2.03003-3.85999,3.12-5.64001-1.53998-1.37-3.18994-2.65997-4.90997-3.84998-1.81-1.23999-3.70001-2.37-5.62-3.35004-6.23999-3.19-12.96002-5.00995-19.97998-5.39996l-.69-.04004,.25-.63995c.83997-2.19,1.85999-4.35004,3.02997-6.41003l.16003-.27997,.32001,.02997c7.42999,.75,14.53998,2.90002,21.12994,6.40002,1.95001,1.02002,3.88,2.19,5.72003,3.46002,1.70001,1.15997,3.34998,2.42999,4.91998,3.77997,1.40002-1.83002,2.88-3.59003,4.41998-5.25-1.54999-1.33002-3.16998-2.59003-4.82996-3.75-1.84003-1.29999-3.73004-2.48999-5.62-3.54999-6.5-3.66003-13.51001-6.14001-20.84003-7.38l-.85999-.15002,.56-.66998c1.69-2.01001,3.56-3.90997,5.53998-5.64001l.20001-.16998,.23999,.06c7.17999,1.66998,14.04004,4.42999,20.40002,8.20001,2,1.19,3.92999,2.45996,5.70996,3.77997,1.71002,1.24005,3.38,2.57001,4.98004,3.97003,1.58002-1.40002,3.26001-2.72998,4.97998-3.97003,1.85004-1.35999,3.76001-2.63,5.69-3.76996,6.58002-3.90002,13.67999-6.72003,21.09998-8.36005l.25-.06,.19,.16003c2.03003,1.73999,3.92004,3.64996,5.63,5.67999l.57001,.67999-.87,.14001c-7.60999,1.17999-14.88,3.70001-21.62,7.5-1.95001,1.08997-3.83997,2.28998-5.60999,3.54999-1.66003,1.15997-3.29004,2.41998-4.84003,3.75,1.54004,1.65997,3.03003,3.41998,4.42999,5.25,1.57001-1.34998,3.22003-2.62,4.91003-3.77997,1.83002-1.27002,3.76001-2.43005,5.71997-3.46002,6.84003-3.63,14.23004-5.81,21.97003-6.47998l.32001-.02002,.15997,.27002c1.16003,2.03998,2.17999,4.19995,3.04999,6.44995l.25,.65002-.69995,.02997c-7.31006,.28003-14.32001,2.12006-20.84003,5.44-1.95001,1-3.83002,2.13-5.60999,3.35004-1.72003,1.17999-3.37,2.46997-4.91003,3.84998,1.11005,1.82001,2.16003,3.71002,3.11005,5.63,1.50995-1.41998,3.13995-2.75,4.85999-3.95996,1.82996-1.29004,3.76001-2.45001,5.72998-3.43005,6.15002-3.06995,12.78003-4.63,19.70001-4.63h.51001l.08997,.39001c.47003,2.19,.78003,4.42004,.95001,6.64001l.03998,.56,.00006,.00002Z"/>
    <path d="M67.46751,107.0125c0,3.63-.64001,7.17999-1.90997,10.54004l-.19,.5-.49005-.22003c-1.27997-.58997-2.56995-1.27002-3.85999-2.02002-.60999-.33997-1.26996-.75-2.01996-1.22998l-.33002-.21002,.13-.37c.72998-2.22998,1.10999-4.57996,1.10999-6.98999,0-5.14001-1.70001-9.98999-4.91998-14-1.58002-1.95996-3.44-3.63-5.54004-4.95001-3.32001-2.10999-7.16998-3.31-11.13-3.46997l-.38995-.01001-.08002-.38c-.5-2.20996-.83002-4.44-1.01001-6.64001l-.03998-.53998h.66998c4.98999,0,9.92999,1.25,14.29999,3.60999,2.04999,1.13,3.98999,2.48999,5.75,4.08002,2.10999,1.90002,3.92999,4.06,5.39001,6.41998,2.97998,4.75,4.56,10.23999,4.56,15.87999Z"/>
  </g>
</svg>