<?xml version="1.0" encoding="UTF-8"?>
<svg id="Layer_1" data-name="Layer 1" xmlns="http://www.w3.org/2000/svg" viewBox="0 0 71.73034 71.73034">
  <defs>
    <style>
      .cls-1 {
        fill: #abca37;
      }

      .cls-2 {
        fill: #fff;
      }
    </style>
  </defs>
  <rect class="cls-1" x="0" y="0" width="71.73034" height="71.73034" rx="35.86513" ry="35.86513"/>
  <g>
    <path class="cls-2" d="M58.33205,39.63498c-.13164,.65854-.22142,1.32879-.40161,1.97376-1.34623,4.81882-5.85252,8.05756-10.90002,7.85423-4.87742-.19648-9.06039-3.83694-10.00855-8.71049-1.18716-6.10201,3.22881-12.02676,9.41755-12.63517,5.78084-.56832,10.89315,3.40051,11.78854,9.15131,.03229,.20743,.0693,.41413,.1041,.62117v1.74521Zm-11.97593,4.86353c0,.46534-.00808,.92649,.0019,1.38726,.01475,.6803,.52058,1.19498,1.16914,1.20489,.66438,.01015,1.18683-.50921,1.20573-1.20889,.00927-.34337,.01886-.68828-.00339-1.03043-.016-.24601,.06521-.36257,.29438-.46989,1.55099-.72637,2.34587-2.32478,2.00785-3.99135-.32088-1.58203-1.72764-2.74864-3.39461-2.81511-.61102-.02436-1.02281-.29503-1.20496-.79201-.1693-.4619-.0409-.98092,.33576-1.29522,.4501-.37558,.94785-.37957,1.44169-.1146,.25256,.13551,.47157,.3347,.70218,.5098,.51006,.38729,1.19352,.33939,1.61706-.11655,.43199-.46505,.426-1.18253-.03825-1.64525-.21358-.21288-.45767-.40074-.70854-.56923-.33796-.22697-.84062-.3468-1.00569-.65542-.17603-.32913-.03361-.82484-.04352-1.24751-.01645-.702-.53433-1.2209-1.19954-1.21437-.66408,.00651-1.16554,.53004-1.17612,1.23784-.0067,.44855-.00125,.89729-.00125,1.33793-1.98006,.7743-2.55011,2.59547-2.34133,3.8661,.29596,1.80117,1.65131,2.99197,3.49362,3.0742,.54124,.02416,.93328,.26404,1.1406,.76865,.18221,.4435,.06979,.94603-.28089,1.27453-.40103,.37567-.88461,.45703-1.35476,.20889-.36503-.19265-.69508-.47344-.99537-.76218-.53498-.5144-1.23735-.57808-1.73509-.11186-.50271,.47087-.50629,1.17095-.01129,1.73551,.56811,.64794,1.25132,1.13038,2.08469,1.43429Z"/>
    <path class="cls-2" d="M32.07949,54.31059V23.23333c-.1478-.00705-.27464-.01818-.40149-.01836-1.03075-.00148-2.06152,.00278-3.09225-.0024-.59383-.00298-1.01449-.29289-1.19344-.80279-.17279-.49233-.03686-.95741,.41294-1.34362,2.72694-2.34144,5.45475-4.68187,8.18609-7.01817,.55847-.4777,1.12596-.48579,1.68147-.01126,2.74284,2.34301,5.4808,4.69175,8.21661,7.04297,.44223,.38006,.56828,.86332,.38822,1.35224-.18408,.49984-.60777,.77896-1.20976,.78101-1.13596,.00387-2.27194,.00112-3.47084,.00112,0,.15217,0,.29059,0,.42901,0,1.05738-.0072,2.11485,.00558,3.17207,.00281,.23232-.0828,.34263-.27839,.4569-4.61037,2.69343-7.02285,6.71002-6.82413,12.0541,.18016,4.84501,2.59078,8.46445,6.77259,10.89845,.23505,.13681,.3409,.26654,.33137,.54561-.02208,.64689-.03897,1.29705,.00139,1.94217,.04623,.73879-.19565,1.28111-.88086,1.59824h-8.6451Z"/>
    <path class="cls-2" d="M24.94133,54.31059c.00002-7.46808-.00004-14.93616,.00013-22.40424,.00002-1.0409,.42819-1.47286,1.45969-1.47327,1.08189-.00043,2.16377-.0001,3.29895-.0001v23.87761h-4.75877Z"/>
    <path class="cls-2" d="M18.5963,54.31059c-.68299-.31793-.88863-.85916-.88381-1.59689,.02468-3.77827,.01113-7.55678,.01162-11.33521,.00013-.98023,.44576-1.42534,1.42623-1.42602,1.09412-.00076,2.18823-.00017,3.3323-.00017v14.35829h-3.88633Z"/>
  </g>
</svg>