<?xml version="1.0" encoding="UTF-8"?>
<svg id="Layer_1" data-name="Layer 1" xmlns="http://www.w3.org/2000/svg" viewBox="0 0 71.72998 71.72998">
  <defs>
    <style>
      .cls-1 {
        fill: #abca37;
      }
    </style>
  </defs>
  <path class="cls-1" d="M61.22003,10.50995C54.73999,4.01996,45.77002,0,35.87,0,25.96002,0,17,4.01996,10.51001,10.50995,4.02002,17,0,25.95996,0,35.87c0,19.81,16.06,35.85999,35.87,35.85999,9.90002,0,18.87-4.01001,25.35004-10.5,6.5-6.48999,10.50995-15.45001,10.50995-25.35999s-4.00995-18.87-10.50995-25.36005ZM19.16003,20.78998c1.08997-1,2.37-1.65002,3.73999-2.15002,3.45996-1.25995,7.02997-1.58997,10.67999-1.32001,2.46997,.19,4.87,.68005,7.15997,1.68005,1.06,.45996,2.05005,1.02997,2.90002,1.81995,1.46997,1.39001,1.46997,2.91003-.02002,4.29004-1.09998,1.02002-2.41998,1.67999-3.81,2.19-2.70996,1-5.52997,1.37-8.58002,1.39001-3.06995-.03003-6.22998-.47003-9.21997-1.78003-1.04999-.45001-2.02002-1.02002-2.87-1.79999-1.48999-1.39001-1.47998-2.92999,.02002-4.32001Zm12.45996,30.81c-2.92999,.03998-5.79999-.34003-8.57001-1.34003-1.37-.48999-2.66998-1.12994-3.76996-2.09998-.86005-.76001-1.38-1.66998-1.27002-2.84998,.02002-.29004,0-.58002,0-.87,.84998,.42999,1.64001,.87994,2.46997,1.25995,2.15002,.97003,4.42004,1.57001,6.77002,1.81,1.64001,.17004,3.31,.18005,4.96002,.27002,.12,.01001,.28998,.07001,.33997,.16003,.64001,1.15997,1.27002,2.32996,1.92004,3.52997-.91003,.04999-1.88,.12-2.85004,.13Zm-13.60999-14.85999c4.14001,2.57996,8.70001,3.34998,13.42999,3.42999v3.75c-.57001,0-1.15997,.02997-1.73999,0-2.65997-.16003-5.25-.65002-7.71002-1.72998-1.14996-.5-2.23999-1.13-3.10999-2.07001-.59998-.65002-.92999-1.40002-.87-2.30005,.02002-.33997,0-.67999,0-1.07996Zm16.66998-4.14001c-.82996,1.04999-1.5,2.19-2.04999,3.40997-.04999,.13-.23999,.29004-.37,.30005-3.21997,.08997-6.38-.28003-9.40997-1.41003-1.31-.47998-2.54004-1.09998-3.59003-2.03998-.84003-.75-1.34998-1.64001-1.25-2.81,.02002-.29999,0-.60004,0-.92999,5.23999,3.13995,10.91998,3.69,16.82001,3.22998-.04999,.09003-.09003,.17999-.15002,.25Zm23.46002,10.21997c-.16003,.81006-.25,1.63-.47003,2.41003-.90997,3.13-2.83997,5.46002-5.70996,6.98999-1.98999,1.07001-4.15002,1.47998-6.39001,1.25-3.37-.34998-6.09003-1.90997-8.12-4.62-1.47998-1.97998-2.23999-4.21997-2.22998-6.67999,.00995-3.77002,1.50995-6.85999,4.48999-9.17999,2.34998-1.83002,5.06-2.62,8.02997-2.32001,3.65002,.37,6.5,2.13,8.54004,5.16998,1.04999,1.57001,1.63,3.31,1.79999,5.19,.01001,.08002,.03998,.15002,.06,.22998v1.56Z"/>
</svg>