<?xml version="1.0" encoding="UTF-8"?>
<svg id="Layer_1" data-name="Layer 1" xmlns="http://www.w3.org/2000/svg" viewBox="0 0 71.73034 71.73034">
  <defs>
    <style>
      .cls-1 {
        fill: #abca37;
      }

      .cls-2 {
        fill: #fff;
      }
    </style>
  </defs>
  <rect class="cls-1" x="0" y="0" width="71.73034" height="71.73034" rx="35.86513" ry="35.86513"/>
  <g>
    <path class="cls-2" d="M52.92676,37.28158c-.56219-2.86208-1.82531-5.39105-3.71268-7.61336-.1588-.18618-.26284-.4828-.26467-.72922-.02099-2.20497-.01186-4.41085-.01369-6.61583,0-.17431-.01643-.34863-.02464-.51565h-2.72062v5.05975c-.81865-.45724-1.57159-.90353-2.35008-1.30053-.29296-.14968-.37601-.3249-.37419-.6343,.01186-1.77968,.00548-3.55935,.00548-5.33903v-.52752h-2.75622v5.30161c-.76845-.12503-1.46664-.28657-2.17303-.3386-.47914-.03559-.54851-.2309-.54485-.64981,.01916-2.17486,.00912-4.34971,.00912-6.52456v-.5266h-2.7334v.57224c0,2.20497,.00274,4.41086-.00821,6.61583-.00091,.15333-.0867,.42347-.16975,.4399-.82778,.15515-1.66286,.26923-2.56456,.40431v-5.29431h-2.72336v.52752c0,1.77968,.00365,3.55935-.00548,5.33903-.00091,.1661-.02829,.42256-.13325,.48462-.83051,.49283-1.68202,.94734-2.59376,1.45112v-5.06797h-2.73249v.56858c0,2.08359-.01552,4.16718,.01095,6.25077,.00639,.52113-.14968,.90536-.47093,1.31058-3.92167,4.93472-4.97853,10.44989-2.78816,16.35293,2.27616,6.13121,6.83578,9.6787,13.29098,10.7465,.43078,.07118,.86519,.11864,1.2978,.17706h1.91292c.13234-.02556,.26284-.06389,.39609-.07392,2.39663-.1798,4.64541-.86702,6.73265-2.048,3.20433-1.81253,5.58362-4.40447,7.08676-7.77581,1.43652-3.21893,1.79337-6.57385,1.11526-10.02733Zm-16.36571,14.7202c-6.31648-.08305-11.41-5.24685-11.35068-11.50674,.06023-6.33565,5.25324-11.47754,11.50765-11.3954,6.31648,.08305,11.41092,5.24685,11.35159,11.50674-.06023,6.33564-5.25415,11.47754-11.50857,11.3954Z"/>
    <path class="cls-2" d="M37.9606,10.47875v3.23608h-2.73263v-3.23608h2.73263Z"/>
    <path class="cls-2" d="M32.50056,16.45246h-2.67035v-3.20799h2.67035v3.20799Z"/>
    <path class="cls-2" d="M40.75705,16.42478v-3.18835h2.67415v3.18835h-2.67415Z"/>
    <path class="cls-2" d="M27.02927,19.18874h-2.66696v-3.2097h2.66696v3.2097Z"/>
    <path class="cls-2" d="M46.22774,15.97926h2.67089v3.2097h-2.67089v-3.2097Z"/>
  </g>
  <path class="cls-2" d="M38.16232,33.8427c.30127,.06046,.61329,.08909,.90202,.18664,1.64606,.55613,2.65386,1.69164,2.90168,3.414,.31363,2.17982-1.07632,4.13866-3.22984,4.62427-.30632,.06907-.6283,.08656-.94378,.0935-.63428,.01395-1.26908,.00415-1.90367,.00415h-.14856v.8948h.15657c.76064,0,1.52127-.00025,2.28191,.00013,.34334,.00017,.48233,.13924,.48248,.48152,.00021,.50844,.00055,1.01689-.00014,1.52533-.00041,.3039-.15167,.45396-.45856,.45421-.76498,.00063-1.52996,.00022-2.29495,.00023h-.17572c0,.05318,0,.09884,0,.14449,0,.35635,.00063,.71269-.00021,1.06903-.00071,.30547-.15321,.45981-.45436,.46013-.51723,.00055-1.03446,.00049-1.5517,.00002-.3033-.00027-.45391-.15116-.4551-.45799-.00136-.35199-.00034-.704-.00035-1.056,0-.04716,0-.09433,0-.1597-.23052,0-.45127-.01065-.67063,.00225-.43535,.0256-.60845-.14418-.59205-.59203,.01716-.4687,.00338-.93853,.00401-1.40786,.00042-.31132,.15157-.46182,.46493-.46361,.24773-.00142,.49546-.00143,.74319-.00237,.00848-.00003,.01696-.00341,.03799-.00792v-.88469c-.2651,0-.52486,.0004-.78461-.0001-.31295-.0006-.46117-.14942-.46152-.46442-.00055-.50844-.00054-1.01689-.00001-1.52533,.00033-.31533,.14909-.46523,.46091-.46571,.2599-.00039,.51981-.00008,.79779-.00008v-.1758c0-1.72958,.00232-3.45916-.00267-5.18872-.00069-.23983,.07365-.4129,.30413-.50239h4.59082Zm-2.4223,5.86691c.05077,0,.08938,.00006,.12798,0,.70375-.00135,1.40923,.02806,2.11085-.01136,1.03027-.05789,1.74019-1.01955,1.54241-2.03261-.15393-.78843-.85188-1.35986-1.67809-1.3657-.66465-.00469-1.32936-.00108-1.99404-.00076-.03378,.00002-.06757,.00372-.10911,.00616v3.40428Z"/>
</svg>