<?xml version="1.0" encoding="UTF-8"?>
<svg id="Layer_1" data-name="Layer 1" xmlns="http://www.w3.org/2000/svg" viewBox="0 0 73.61798 73.61798">
  <defs>
    <style>
      .cls-1 {
        fill: #abca37;
      }

      .cls-2 {
        fill: #fff;
      }
    </style>
  </defs>
  <circle class="cls-1" cx="36.80899" cy="36.80899" r="36.80899"/>
  <g>
    <path class="cls-2" d="M27.92324,61.43595c-.80749-.34674-1.08678-.95979-1.07763-1.83011,.0322-3.06057,.00847-6.1217,.0189-9.18257,.00102-.29789-.09018-.46801-.33986-.64175-4.82255-3.35597-7.59218-7.94204-8.10863-13.80917-.78849-8.95776,5.14813-17.24935,13.84006-19.4131,9.91137-2.46732,19.83814,3.4211,22.42475,13.30204,1.95818,7.48032-1.05084,15.46486-7.4954,19.84616-.33003,.22437-.4571,.44836-.45474,.84854,.0178,3.01644-.00995,6.03325,.02206,9.04946,.00923,.86971-.26993,1.4836-1.07747,1.83051h-.71008c-.19392-.09998-.38681-.202-.58191-.29961-2.41393-1.2078-4.82649-2.41836-7.24617-3.61452-.15954-.07887-.41304-.12546-.55725-.05427-2.65482,1.31071-5.29963,2.6417-7.94655,3.96839h-.71008Zm-3.90505-26.97773c.00037,7.05107,5.7298,12.77876,12.78203,12.77816,7.05377-.0006,12.78116-5.72817,12.78008-12.78049-.00108-7.0538-5.72747-12.77788-12.78231-12.77713-7.05342,.00075-12.78018,5.72735-12.77981,12.77946Z"/>
    <path class="cls-2" d="M46.73998,34.46955c-.00557,5.47952-4.46059,9.92773-9.94222,9.92701-5.49805-.00072-9.95529-4.47374-9.93924-9.97443,.01598-5.47751,4.4795-9.91387,9.96418-9.90354,5.481,.01033,9.92286,4.46728,9.91728,9.95096Zm-11.87867,.90147c-.24925-.23006-.46487-.43027-.68183-.62902-.218-.19969-.43375-.40204-.65677-.59599-.63512-.55232-1.48514-.52418-2.02673,.06295-.54163,.58718-.50656,1.44145,.10868,2.02226,.7416,.7001,1.49438,1.38874,2.25465,2.06855,.63063,.56388,1.35501,.56216,1.99904,.0055,.39127-.33819,.7663-.69519,1.14776-1.0447,1.63486-1.49794,3.26741-2.99842,4.9054-4.49294,.43764-.3993,.66217-.87337,.52854-1.46342-.24977-1.10291-1.53389-1.46007-2.40726-.66587-1.71668,1.56107-3.42402,3.1324-5.17147,4.73268Z"/>
  </g>
</svg>