<?xml version="1.0" encoding="UTF-8"?>
<svg id="Layer_1" data-name="Layer 1" xmlns="http://www.w3.org/2000/svg" viewBox="0 0 383.29376 383.33533">
  <defs>
    <style>
      .cls-1 {
        fill: #fcdb5a;
      }
    </style>
  </defs>
  <path class="cls-1" d="M383.29376,187.91534v8.23999c-1.98999,3.96002-3.72998,8.08002-6.02002,11.86005-4.66992,7.65997-9.59991,15.15997-14.47992,22.69-2.78998,4.31995-4.25,9.01996-3.97998,14.14996,.46997,8.97003,.94995,17.92999,1.66998,26.88,.96997,12.13-3.34998,20.26001-14.22003,25.95001-8.26996,4.33002-16.53998,8.67999-24.89996,12.83002-5.59003,2.77997-9.66003,6.82996-12.37,12.46997-3.83002,7.97003-7.87,15.84003-11.83002,23.75-4.84003,9.65997-12.62,14.48999-23.46997,14.09998-7.47003-.26996-15-.21997-22.40002-1.12994-10.58002-1.29004-19.66998,1.02997-28.44,7.32996-8.62,6.19-17.03003,13.04004-27.46002,16.29999h-8.22998c-5.75-3.13995-11.59003-6.12-17.21002-9.46997-6-3.57001-11.78998-7.48999-17.66998-11.23999-4.21997-2.70001-8.84998-4.04999-13.84998-3.78003-9.21002,.5-18.42999,1.04999-27.63,1.75-11.17999,.85004-19.54999-3.65997-24.79999-13.70996-4.5-8.61005-8.99005-17.23004-13.38-25.90002-2.63-5.20001-6.45001-9.09998-11.67004-11.69-7.94-3.90997-15.79999-7.97998-23.75995-11.83002-10.37006-4.98999-15.26001-13.13995-14.68005-24.60999,.47003-9.34998,.84003-18.70001,1.42004-28.03998,.39996-6.48999-1.23004-12.26001-4.92999-17.62-4.88-7.08002-9.48004-14.36005-14.26001-21.51001-6.31-9.42999-6.29999-18.83002-.12-28.32001,5.29999-8.15997,10.47998-16.39001,15.76996-24.54999,2.87-4.42999,4.38-9.23999,4.10004-14.5-.48999-9.10004-1-18.19-1.71002-27.27002-.89996-11.45001,3.60004-19.83997,13.77002-25.10999,8.29999-4.29999,16.53998-8.71002,24.91998-12.84003,6.09003-3,10.41003-7.46997,13.31-13.58997,3.62-7.66003,7.54999-15.17004,11.29999-22.77002,4.86005-9.87,12.73999-14.70001,23.75-14.23999,9.59003,.39996,19.19,.83002,28.78003,1.41998,6.5,.41003,12.26001-1.29999,17.60999-4.96997,6.89001-4.73004,13.98999-9.14001,20.87-13.88,9.76001-6.72003,19.41998-6.71002,29.27002-.23004,7.90997,5.21002,15.95996,10.22003,23.89001,15.39001,4.53998,2.96002,9.44,4.54004,14.83997,4.25,9.09003-.5,18.17999-1.02997,27.26001-1.72998,11.25-.88,19.65002,3.57001,24.89001,13.54999,4.51001,8.59998,9,17.22998,13.38,25.90002,2.75,5.44995,6.75,9.41998,12.27997,12.06,7.76001,3.70001,15.35004,7.75,23.09003,11.48999,10.46997,5.07001,15.42999,13.28998,14.79999,24.92999-.5,9.34003-.84998,18.70001-1.41998,28.03998-.39001,6.36005,1.20996,12.04004,4.83997,17.27002,3.70001,5.33002,7.38,10.67999,10.70007,16.23999,3.04993,5.08002,5.60986,10.45001,8.37988,15.69Z"/>
</svg>