<svg width="0" height="0" style="position:absolute"><symbol viewBox="0 0 384 287.765" id="email" xmlns="http://www.w3.org/2000/svg"><path d="M384 80.87v176.263c-.143.2-.362.382-.418.605-5.087 20.345-17.45 30.01-38.42 30.01-51.613.002-103.226 0-154.84 0-50.988 0-101.977-.02-152.965.017-10.183.008-19.132-2.99-26.607-10.073-5.946-5.635-8.904-12.798-10.75-20.56V80.87c.557.24 1.166.4 1.662.732 51.858 34.57 103.706 69.154 155.557 103.735 23.244 15.502 46.281 15.527 69.582.006 46.356-30.877 92.688-61.791 139.044-92.668 6.007-4.002 12.101-7.873 18.155-11.805z"/><path d="M0 40.367v-9.75c.618-2.14 1.155-4.308 1.866-6.418C6.978 9.023 20.33.006 37.733.005 140.585-.003 243.436.001 346.288.003c1.124 0 2.25-.005 3.373.055 15.254.81 27.762 10.105 32.471 24.16.706 2.105 1.25 4.264 1.868 6.399v9.75c-2.4 9.933-7.293 18.072-16.024 23.876-51.793 34.43-103.493 69-155.28 103.44-13.849 9.209-27.854 9.026-41.698-.2-51.65-34.424-103.284-68.87-154.944-103.28-8.191-5.456-13.55-12.77-15.44-22.515-.09-.463-.404-.881-.614-1.32z"/></symbol><symbol viewBox="0 0 19.066 20.457" id="phone" xmlns="http://www.w3.org/2000/svg"><path d="M4.415 0c.706.227 1.163.755 1.548 1.343.444.678.872 1.37 1.261 2.08.287.524.439 1.1.315 1.713-.077.385-.259.717-.546.976-.395.357-.789.721-1.223 1.025-.85.592-.972 1.312-.652 2.24.294.856.81 1.587 1.363 2.287.723.916 1.495 1.79 2.404 2.53.503.409 1.03.778 1.679.927.566.131 1.048-.015 1.467-.412.415-.394.825-.794 1.262-1.163.713-.602 1.5-.621 2.309-.21.265.136.531.284.764.468.834.66 1.693 1.299 2.336 2.166.53.717.488 1.41-.17 2.01-.62.564-1.207 1.167-1.94 1.595-1.284.75-2.663 1.01-4.13.826-1.569-.196-2.957-.845-4.25-1.72-1.708-1.158-3.138-2.613-4.45-4.191-1.167-1.403-2.196-2.895-2.925-4.577C.333 8.75.001 7.538 0 6.262c-.001-2.098.76-3.85 2.421-5.178.244-.195.46-.43.715-.607.263-.184.558-.32.84-.477h.439z"/></symbol><symbol viewBox="0 0 510.109 488.864" id="star" xmlns="http://www.w3.org/2000/svg"><path d="M0 188.294c2.958-9.423 7.881-17.67 17.809-20.418 7.74-2.143 15.995-2.61 24.064-3.354 41.802-3.855 83.615-7.589 125.432-11.267 3.367-.296 5.123-1.594 6.484-4.802 18.314-43.177 36.852-86.26 55.177-129.432 3.72-8.763 9.334-15.255 18.644-17.913 13.644-3.896 26.866 2.692 32.794 16.453 12.522 29.072 24.896 58.208 37.333 87.315 6.252 14.631 12.598 29.223 18.691 43.919 1.174 2.83 2.66 4.125 5.711 4.391 30.746 2.677 61.484 5.443 92.22 8.226a8508.67 8508.67 0 0150.551 4.715c11.742 1.134 19.933 7.345 23.622 18.436 3.842 11.548.541 21.634-8.556 29.631-35.28 31.014-70.588 61.998-106 92.86-3.197 2.786-4.427 5.14-3.394 9.592 10.605 45.693 20.937 91.449 31.336 137.19 2.717 11.949-.067 22.277-10.14 29.601-10.036 7.297-20.706 6.959-31.258.646-40.277-24.095-80.578-48.15-120.778-72.373-3.43-2.067-5.867-2.12-9.322-.038-40.062 24.127-80.216 48.101-120.374 72.07-13.618 8.127-28.262 6.013-37.088-5.285-5.583-7.146-7-15.247-5.015-23.982 10.393-45.742 20.739-91.495 31.342-137.188 1.081-4.66.215-7.34-3.42-10.497-35.212-30.587-70.19-61.443-105.342-92.101C5.328 210.157 2.302 204.504 0 198.255v-9.961z"/></symbol><symbol viewBox="0 0 384 384" id="telegram" xmlns="http://www.w3.org/2000/svg"><path d="M204 384h-24c-4.687-.576-9.385-1.073-14.058-1.74-37.947-5.425-71.57-20.491-100.33-45.862-33.655-29.69-54.675-66.687-62.63-110.941C1.705 218.355.98 211.155 0 204v-24c.552-4.566 1.026-9.143 1.667-13.697 5.494-39.045 21.197-73.45 47.668-102.669 29.66-32.738 66.317-53.175 109.96-60.738C166.156 1.706 173.095.954 180 0h24c.962.21 1.915.54 2.887.613 28.978 2.166 56.201 10.294 81.125 25.189 50.859 30.393 82.092 74.743 93.044 133.112 1.307 6.967 1.978 14.054 2.944 21.086v24c-.212.966-.543 1.923-.618 2.899-2.528 32.92-12.693 63.317-31.125 90.673-30.591 45.404-72.891 73.384-126.819 83.451-7.084 1.322-14.289 2-21.438 2.977zm77.051-252.592c.02-.147.032-.296.034-.445.218-12.4-4.9-16.988-14.493-14.775-6.895 1.59-13.772 3.68-20.29 6.42-54.5 22.915-108.923 46.016-163.337 69.136-2.608 1.108-5.126 2.657-7.325 4.443-4.48 3.638-4.03 7.853.989 10.819 1.597.944 3.334 1.744 5.105 2.289 10.368 3.188 20.759 6.303 31.155 9.4 10.823 3.223 20.719 1.092 29.858-5.281 1.229-.857 2.493-1.663 3.74-2.494 23.48-15.652 46.956-31.311 70.45-46.944 2.387-1.59 4.75-3.351 7.377-4.391.39-.154.82-.205 1.275-.194 2.371.059 4.096 2.493 3.21 4.693-.092.23-.208.444-.353.634-2.19 2.862-4.753 5.472-7.37 7.968-14.104 13.454-28.309 26.802-42.392 40.277-4.507 4.312-9.017 8.676-13.036 13.43-3.99 4.718-3.605 8.907.767 13.304 2.269 2.281 4.906 4.251 7.575 6.07 17.437 11.883 34.871 23.774 52.448 35.449 2.372 1.575 4.884 3.052 7.485 4.288 9.24 4.387 20.313-.4 23.467-10.13a61.206 61.206 0 002.072-8.452c5.53-32.101 11.015-64.211 16.23-96.365 2.243-13.83 3.823-27.767 5.36-39.149z"/></symbol><symbol viewBox="0 0 408.807 408.914" id="whatsapp" xmlns="http://www.w3.org/2000/svg"><path d="M216.368 408.914H194.01c-5.802-.649-11.623-1.165-17.403-1.969-29.24-4.064-56.392-13.89-81.267-29.836-2.34-1.5-4.359-1.793-7.02-.911-13.614 4.508-27.288 8.833-40.947 13.205-11.076 3.545-22.16 7.065-33.811 10.778.524-1.704.84-2.814 1.205-3.907 7.422-22.161 14.724-44.365 22.39-66.442 1.432-4.126.925-7.018-1.494-10.513C15.491 290.166 3.963 257.775.87 222.53c-3.833-43.695 4.911-84.92 27.935-122.293 38.22-62.04 94.21-95.688 167.007-99.898 40.296-2.33 78.228 7.377 112.747 28.424 53.071 32.36 85.608 79.264 97.064 140.513 1.433 7.666 2.14 15.469 3.184 23.208v23.959c-.326 2.873-.658 5.745-.978 8.62-4.882 43.847-21.57 82.57-51.064 115.424-31.514 35.106-70.608 57.011-117.16 65.252-7.692 1.362-15.489 2.131-23.237 3.175zm54.116-89.246c6.568-1.269 12.23-1.703 17.434-3.477 28.952-9.864 38.796-23.854 39.654-50.483.135-4.212-1.337-7.094-5.206-8.933-15.233-7.243-30.362-14.707-45.651-21.827-7.812-3.638-12.389-2.15-17.57 4.81-3.968 5.333-7.845 10.737-11.942 15.97-6.23 7.96-10.622 9-20.087 5.135-33.653-13.746-58.673-37.324-77.446-68.015-3.764-6.154-3.56-8.745 1.217-14.28 3.823-4.431 7.78-8.746 11.592-13.187 4.7-5.476 6.68-11.39 2.803-18.26-1.037-1.836-1.644-3.913-2.474-5.87-5.813-13.69-11.516-27.429-17.57-41.011-.978-2.195-3.268-4.82-5.4-5.315-10.887-2.532-21.87-2.7-31.232 4.49-8.584 6.592-14.604 15.412-18.396 25.589-7.483 20.081-5.085 39.64 3.193 58.926 6.09 14.189 14.978 26.618 24.072 38.908 15.345 20.736 32.877 39.379 53.27 55.293 21.836 17.04 46.75 27.762 72.998 35.614 8.972 2.684 18.325 4.096 26.74 5.923z"/></symbol></svg>