<?xml version="1.0" encoding="utf-8"?><svg viewBox="0 0 636.64 637.95" xmlns="http://www.w3.org/2000/svg" xmlns:xlink="http://www.w3.org/1999/xlink"><style>:root>svg{display:none}:root>svg:target{display:block}</style><svg viewBox="0 0 26.1 20" id="arrow-left" xmlns="http://www.w3.org/2000/svg"><path d="M.1 9.7v-.1c0-.1.1-.2.2-.3l9-9c.4-.4 1-.4 1.4 0s.4 1 0 1.4L3.4 9H25c.5 0 1 .5 1 1s-.5 1-1 1H3.4l7.3 7.3c.4.4.4 1 0 1.4-.2.2-.4.3-.7.3-.3 0-.5-.1-.7-.3l-9-9c-.2-.2-.3-.4-.3-.7 0-.1 0-.2.1-.3z"/></svg><svg viewBox="0 0 26.1 20" id="arrow-right" xmlns="http://www.w3.org/2000/svg"><path d="M26 10c0 .3-.1.5-.3.7l-9 9c-.2.2-.4.3-.7.3-.3 0-.5-.1-.7-.3-.4-.4-.4-1 0-1.4l7.3-7.3H1c-.5 0-1-.5-1-1s.5-1 1-1h21.6l-7.3-7.3c-.4-.4-.4-1 0-1.4.4-.4 1-.4 1.4 0l9 9c.1.1.2.2.2.3v.1c.1.1.1.2.1.3z"/></svg><svg viewBox="0 0 329.269 329" id="close" xmlns="http://www.w3.org/2000/svg"><path d="M194.8 164.77L323.013 36.555c8.343-8.34 8.343-21.825 0-30.164-8.34-8.34-21.825-8.34-30.164 0L164.633 134.605 36.422 6.391c-8.344-8.34-21.824-8.34-30.164 0-8.344 8.34-8.344 21.824 0 30.164l128.21 128.215L6.259 292.984c-8.344 8.34-8.344 21.825 0 30.164a21.266 21.266 0 0015.082 6.25c5.46 0 10.922-2.09 15.082-6.25l128.21-128.214 128.216 128.214a21.273 21.273 0 0015.082 6.25c5.46 0 10.922-2.09 15.082-6.25 8.343-8.34 8.343-21.824 0-30.164zm0 0"/></svg><svg viewBox="0 0 264 88" id="default-skin" xmlns="http://www.w3.org/2000/svg"><g fill="none" fill-rule="evenodd"><path d="M67.002 59.5v3.768c-6.307.84-9.184 5.75-10.002 9.732 2.22-2.83 5.564-5.098 10.002-5.098V71.5L73 65.585 67.002 59.5zM13 29v-5h2v3h3v2h-5zm0-14h5v2h-3v3h-2v-5zm18 0v5h-2v-3h-3v-2h5zm0 14h-5v-2h3v-3h2v5zM62 24v5h-2v-3h-3v-2h5zm0-4h-5v-2h3v-3h2v5zm8 0v-5h2v3h3v2h-5zm0 4h5v2h-3v3h-2v-5zM20.586 66l-5.656-5.656 1.414-1.414L22 64.586l5.656-5.656 1.414 1.414L23.414 66l5.656 5.656-1.414 1.414L22 67.414l-5.656 5.656-1.414-1.414L20.586 66zM111.785 65.03L110 63.5l3-3.5h-10v-2h10l-3-3.5 1.785-1.468L117 59l-5.215 6.03zM152.215 65.03L154 63.5l-3-3.5h10v-2h-10l3-3.5-1.785-1.468L147 59l5.215 6.03zM160.957 28.543l-3.25-3.25-1.413 1.414 3.25 3.25z" fill="#fff"/><path d="M152.5 27a5.5 5.5 0 100-11 5.5 5.5 0 100 11z" stroke="#fff" stroke-width="1.5"/><path fill="#fff" d="M150 21h5v1h-5z"/><g><path d="M116.957 28.543l-1.414 1.414-3.25-3.25 1.414-1.414 3.25 3.25z" fill="#fff"/><path d="M108.5 27a5.5 5.5 0 100-11 5.5 5.5 0 100 11z" stroke="#fff" stroke-width="1.5"/><path fill="#fff" d="M106 21h5v1h-5z"/><path fill="#fff" d="M109.043 19.008l-.085 5-1-.017.085-5z"/></g></g></svg><svg data-name="Layer 1" viewBox="0 0 384 312.087" id="fruits" xmlns="http://www.w3.org/2000/svg"><path d="M384 234c-2.258 7.998-3.776 16.302-6.922 23.934a101.539 101.539 0 01-36.17 45.358 60.688 60.688 0 01-13.217 6.886c-7.62 2.879-15.185 3.057-21.665-3.38-6.903 6.674-14.712 6.107-22.739 3.055-11.502-4.375-20.609-12.127-28.664-21.141-14.124-15.805-24.064-33.755-26.234-55.19-1.492-14.734.881-28.925 8.483-41.874 12.783-21.775 37.397-29.013 61.193-19.064a3.61 3.61 0 011.849 2.624c.153 6.988.084 13.98.084 22.138-2.827-1.8-5.132-3.052-7.19-4.627-3.6-2.76-6.874-2.938-9.303-.233-2.49 2.774-1.907 6.344 1.542 9.44a31.359 31.359 0 0041.75.163c3.543-3.114 4.219-6.57 1.843-9.43-2.413-2.905-5.787-2.758-9.56.161-1.986 1.539-4.226 2.75-7.072 4.571 0-8.163-.108-15.252.124-22.33.032-.99 1.555-2.36 2.687-2.822 28.575-11.675 57.18 2.436 66.029 32.604 1.358 4.629 2.116 9.433 3.152 14.155zM0 176.993c1.258-6.35 2.125-12.809 3.853-19.028C7.844 143.6 14.48 130.68 26.721 121.506c11.373-8.524 23.672-9.967 36.642-3.718a27.829 27.829 0 012.601 1.478 12.237 12.237 0 011.246 1.036c-19.223 17.948-26.63 40.875-28.104 66.224-1.473 25.323 4.92 48.452 20.454 69.189a31.846 31.846 0 01-28.128-2.187c-12.27-6.893-19.86-17.857-24.496-30.683-2.901-8.027-4.215-16.627-6.241-24.97q-.35-1.44-.695-2.88zM101.823 207.121c.61-23.827 5.011-43.16 18.371-59.494 7.3-8.925 16.438-15.031 28.342-15.56 12.74-.564 22.57 5.468 30.587 14.748 10.368 12 15.522 26.345 17.735 41.815 2.841 19.86.906 39.241-8.07 57.332a72.732 72.732 0 01-13.047 18.54c-15.259 15.465-35.674 15.355-51.38.318-11.04-10.569-16.934-23.98-19.96-38.663-1.504-7.3-2.026-14.804-2.578-19.036zM259.334 102.354c3.589-4.833 6.526-9.166 9.844-13.184 9.59-11.616 14.999-24.943 14.7-39.927-.284-14.213 6.83-26.305 22.123-30.797 0-3.719-.037-7.555.01-11.39.054-4.395 2.383-7.08 6.023-7.056 3.63.025 5.892 2.707 5.96 7.132.054 3.62.058 7.243.09 10.864a2.696 2.696 0 00.15.522 52.032 52.032 0 015.115 1.898c10.164 4.962 16.4 13.005 16.406 24.407.01 18.35 6.099 33.869 17.884 47.948 16.472 19.68 19.052 49.95 7.002 71.451-14.266-8.161-29.486-10.005-46.37-5.749 5.144-5.66 10.783-7.84 17.29-8.546 1.939-.21 4.38-1.041 5.457-2.453 1.058-1.389 1.558-4.457.713-5.74-1.162-1.761-3.814-3.548-5.84-3.562-10.088-.07-18.659 3.909-25.723 11.11-.867.883-1.679 1.822-2.873 3.123-8.397-23.758-20.988-43.31-47.961-50.051z"/><path d="M122.223 129.03c-22.532 18.293-30.633 42.803-32.12 70.223a103.789 103.789 0 0015.612 61.792 9.933 9.933 0 01.646 1.338c.04.092-.046.239-.131.61-8.296 2.269-16.129.643-23.607-3.348a47.815 47.815 0 01-16.4-15.07c-20.315-28.69-20.355-76.43-.006-105.13 6.936-9.782 15.694-17.205 27.988-19.037 10.602-1.58 19.832 1.764 28.018 8.623zM178.049 129.268c8.75-9.59 25.848-12.011 38.492-5.362 11.615 6.108 18.753 16.186 24.162 27.737.211.452.435.902.601 1.371 1.296 3.643 3.448 7.245 3.641 10.948.227 4.348-4.902 5.31-7.502 7.9-12.12 12.076-18.413 26.793-20.681 43.49a88.803 88.803 0 003.787 39.21c.318 1.007.077 2.95-.602 3.397-8.025 5.278-16.713 7.41-26.768 4.944 13.733-21.634 18.772-44.975 16.24-70.025-2.54-25.113-11.063-47.272-31.37-63.61zM170.244 119.1c-2.278 3.616-4.708 3.79-8.21 2.661a41.549 41.549 0 00-24.008-.136c-4.78 1.301-4.774 1.323-8.354-2.475 7.631-12.466 8.85-26.385 8.356-40.68-.254-7.382-4.222-11.81-11.631-12.507-7.31-.688-12.181-6.013-11.783-12.881.383-6.613 5.84-11.235 13.07-11.072 18.303.412 33.648 15.656 34.259 34.11.198 5.992-.071 12.01.376 17.978a58.392 58.392 0 007.925 25.002zM296.321 158.715c-24.769-3.2-24.873-3.197-39.707 1.016a82.78 82.78 0 00-24.033-39.362c7.315-5.176 15.149-7.225 23.695-6.052 10.857 1.489 19.126 7.489 25.899 15.776 6.873 8.411 11.294 18.025 14.146 28.622zM230.225 107.266c-4.958 4.494-9.572 5.762-16.143 3.013-9.794-4.099-20.093-2.84-29.971 1.038-1.039.408-2.083.802-3.13 1.19a2.538 2.538 0 01-.647-.033 43.954 43.954 0 01-5.999-19.659c-.084-1.045 1.263-2.617 2.353-3.283 10.543-6.434 21.54-7.52 32.84-2.123 9.081 4.339 15.533 11.451 20.697 19.857z"/><path d="M120.44 113.294c-12.051-5.566-23.35-7.48-34.388-3.058-6.542 2.622-11.172 1.535-15.945-2.636 7.636-20.468 34.88-29.787 53.14-18.245 2.083 1.316 3.017 2.7 2.307 5.188-1.723 6.045-3.317 12.127-5.114 18.751z"/></svg><svg viewBox="0 0 24 20" id="like" xmlns="http://www.w3.org/2000/svg"><path d="M12.112 2.25C19.864-5.503 32.69 8.346 12.033 20-8.42 8.346 4.367-5.503 12.112 2.25z"/></svg><svg viewBox="0 0 95.4 93.9" id="loop" xmlns="http://www.w3.org/2000/svg"><path d="M.2 36c.2-1.6.4-3.2.7-4.7 1.3-7 4.4-13.2 9.2-18.5C15.7 6.6 22.6 2.6 30.8.9 40.5-1 49.6.5 58 5.5c9.6 5.8 15.7 14.2 18 25.1 2 9.3.5 18.2-4.1 26.6-.9 1.6-.9 1.6.4 2.9l20.1 20.1c2.2 2.2 3.1 4.7 2.3 7.7-1.5 5.7-8.6 7.8-13.1 3.2-3.8-3.9-7.6-7.6-11.5-11.5l-9.2-9.2-.5-.5c-2.4 1.2-4.6 2.6-7 3.6-10.3 4.3-20.7 4.2-30.9-.4C14.9 69.8 9.1 64.3 5 57 2.4 52.3.8 47.3.4 41.9c0-.3-.1-.6-.2-.9v-5zm12.4 2.5c0 14.3 11.7 25.9 26 25.9 14.3-.1 25.8-11.6 25.9-25.9 0-14.2-11.7-25.9-25.9-25.9-14.4 0-26.1 11.6-26 25.9z"/></svg><svg data-name="Layer 1" viewBox="0 0 408.825 287.552" id="mail" xmlns="http://www.w3.org/2000/svg"><path d="M408.825 256.376l-3.562 11.085L284.01 143.759 405.272 20.163l3.553 11.053zM21.104 4.01c.526.582 1.026 1.19 1.581 1.742q77.668 77.291 155.45 154.468a41.237 41.237 0 0014.21 9.189c14.883 5.5 27.925 1.4 38.983-9.597Q308.453 83.107 385.546 6.369c.827-.824 1.57-1.731 3.283-3.633-6.284-.988-11.583-2.402-16.916-2.544-13.164-.35-26.343-.115-39.516-.115q-146.896 0-293.792.1c-5.85.009-11.7 1.466-17.55 2.249zM38.37 287.539q125.12-.052 250.239-.024c27.538 0 55.077.134 82.613-.112 5.55-.05 11.088-1.544 15.147-2.15L264.175 160.601c-5.83 5.931-11.135 11.531-16.657 16.908-16.185 15.757-35.361 21.474-57.466 16.46-11.455-2.598-21.052-8.644-29.27-16.963-5.303-5.367-10.645-10.695-16.533-16.606L22.341 284.666c4.216 2.076 10.002 2.875 16.03 2.873zM4.22 20.658l-1.73.387C1.669 26.717.165 32.385.135 38.062c-.21 38.722-.11 77.445-.11 116.167q0 47.904-.01 95.808A35.467 35.467 0 004 267.317l121.021-123.45z"/></svg><svg data-name="Layer 1" viewBox="0 0 359.809 204.141" id="map" xmlns="http://www.w3.org/2000/svg"><path d="M17.98 130.118l9.405-6.295c-4.293-5.328-3.974-11.585-4.419-17.84-.28-3.947-1.964-7.906-3.59-11.61-1.238-2.822-2.295-5.35-.15-8.004 2.236-2.767 5.002-2.703 8.115-1.429 3.462 1.418 5.01.321 4.759-3.488a28.89 28.89 0 00-1.607-6.866c-1.503-4.632.884-8.276 5.779-8.548a20.137 20.137 0 013.372 0c3.822.434 6.912-.438 9.57-3.597 1.168-1.388 3.616-2.015 5.588-2.33a41.611 41.611 0 016.909-.093c1.997-2.454 3.643-4.566 5.383-6.598 5.92-6.91 11.723-13.93 17.922-20.579 1.432-1.536 4.545-2.81 6.368-2.311 1.831.5 4.22 3.33 4.27 5.195a34.549 34.549 0 005.42 18.418 5.333 5.333 0 01-.826 6.909 5.47 5.47 0 01-6.83 1.347c-3.005-1.47-5.95-3.066-9.255-4.782-5.325 3.55-10.474 7.704-11.87 15.093 2.72 1.767 5.403 2.285 8.272.282a23.404 23.404 0 013.003-1.522c7.067-3.532 7.024-3.486 12.828 1.921.807.752 2.57 1.42 3.411 1.047 8.897-3.944 10.37-3.78 17.24 2.744 3.573-1.443 5.649-6.395 10.6-4.862 4.998 1.549 3.836 6.416 5.436 10.524 1.91-2.629 3.604-4.888 5.22-7.2 2.412-3.447 5.195-4.465 8.24-2.935q4.384 2.202 2.786 7.99-3.518 12.773-7.022 25.549l.964.523c2.127-3.142 4.494-6.15 6.329-9.455 3.15-5.672 5.865-11.583 8.955-17.29 2.791-5.154 4.464-5.688 9.934-3.817 2.952 1.009 5.141-.122 5.315-3.216.235-4.168 2.252-6.156 6.214-7.199 6.517-1.716 11.745-4.842 12.086-12.767.124-2.876 2.356-4.668 5.313-4.93a5.546 5.546 0 015.95 3.632c.636 1.486.986 3.094 1.61 4.586a5.45 5.45 0 005.407 3.76c8.307.187 11.289 4.796 8.445 12.708-.457 1.27-1 2.509-1.541 3.854 1.39 1.019 2.54 1.982 3.802 2.761 2.414 1.49 4.702 1.416 6.756-.769 1.883-2.003 3.723-4.062 5.757-5.903 3.684-3.332 7.876-4.105 12.479-1.984 3.349 1.543 5.925.332 6.414-3.307.242-1.805-.577-3.766-.27-5.546.394-2.289.816-5.318 2.373-6.453 1.567-1.141 4.768-.988 6.843-.25 2.867 1.021 5.35 3.122 8.29 4.942.615-1.623 1.076-3.006 1.654-4.339 2.538-5.854 6.004-10.424 13.006-11.522 8.72-1.368 14.65-5.947 15.766-15.427.169-1.427 1.433-2.9 2.53-4.016 7.273-7.4 14.652-14.697 21.966-22.058C326.718.688 328.948-.76 331.98.428c3.14 1.23 3.59 3.85 4.063 6.912 1.023 6.63-3.222 10.67-6.513 15.301a32.574 32.574 0 00-2.355 4.746c1.876.837 3.721 1.76 5.645 2.47a7.962 7.962 0 002.607.142c2.929.019 5.082 1.271 6.115 4.055a5.474 5.474 0 01-1.996 6.683c-2.186 1.612-2.403 3.118-.937 5.293a44.99 44.99 0 012.392 4.659c1.584 3.076 1.132 5.855-1.422 8.135a4.256 4.256 0 00-1.474 4.908c1.922 6.679 3.659 13.41 5.514 20.294 1.364 0 2.476-.036 3.585.007 4.43.169 6.914 2.454 6.64 6.774-.437 6.88 1.51 13.06 4.63 19.027 2.175 4.161 1.666 7.32-1.35 9.233-2.925 1.855-5.488.772-8.82-2.305-4.659-4.302-9.958-7.91-14.641-12.189-1.74-1.588-3.602-4.26-3.548-6.39a102.067 102.067 0 00-5.357-34.226 22.02 22.02 0 00-1.943-5.435 44.64 44.64 0 00-1.825 5.447 22.603 22.603 0 00-.06 4.489c0 7.722-.915 8.803-9.159 10.011a64.804 64.804 0 004.047 6.785c1.933 2.509 2.937 4.984 1.177 7.888-1.767 2.916-4.42 3.298-7.51 2.44a36.242 36.242 0 00-4.472-.624c2.334 5.947-.548 8.716-5.12 10.975-4.632 2.29-4.884 2.779-2.316 7.494 2.84 5.213 2.667 9.226-1.62 13.746-2.112 2.227-2.4 6.185-3.34 8.864l12.177 2.684c-.23.323.096-.05.327-.473 4.603-8.418 13.642-9.088 19.412-1.415q7.662 10.187 15.275 20.41c2.789 3.752 2.754 6.967.003 9.319-2.735 2.338-5.81 1.852-9.27-1.348a106.742 106.742 0 00-11.675-9.676 10.744 10.744 0 00.605 2.1c2.704 5.19 3.066 10.67 2.58 16.407a12.434 12.434 0 001.377 6.579c3.66 6.812 3.251 13.46-.205 20.062-1.944 3.712-6.083 4.615-9.15 1.815a193.348 193.348 0 01-12.7-12.74c-2.47-2.717-1.779-6.22 1.119-8.548 5.718-4.592 6.372-7.217 3.433-14.95-2.51 1.968-4.907 3.873-7.333 5.74-3.57 2.748-5.314 2.384-9.156.268a31.437 31.437 0 00-11.083-3.926c-5-.592-8.44-2.04-8.829-8.93-3.807 2.767-7.116 4.696-9.73 7.318-.99.992-.711 3.648-.375 5.425.227 1.197 1.512 2.233 2.42 3.256 2.128 2.398 2.915 5.013 1.064 7.851-1.716 2.632-4.267 3.25-7.241 2.445-.962-.26-1.953-.417-2.932-.61-7.794-1.534-7.875-1.442-11.073 5.678a19.918 19.918 0 01-3.154 5.043c-2.787 3.136-6.962 3.161-9.333-.293-4.107-5.983-9.689-8.43-16.721-9.209-5.091-.564-10.04-2.407-15.4-3.768.187 2.238.259 4.825.651 7.362.487 3.143-.062 5.762-3.02 7.38-2.84 1.554-5.23.568-7.498-1.42-9.34-8.184-9.356-8.165-16.977 1.426-1.166 1.468-2.265 3-3.534 4.373-3.324 3.6-7.906 3.108-10.18-1.23-1.56-2.975-2.588-6.228-4.123-9.217a4.922 4.922 0 00-2.828-2.143c-4.324-1.197-8.749-2.029-13.07-3.234-3.398-.948-5.23-3.854-4.269-7.216.603-2.106-.113-3.024-1.634-3.92-1.72-1.015-3.541-1.893-5.146-3.066-2.708-1.98-6.256-3.627-7.703-6.345-2.92-5.484-7.878-7.596-12.841-10.05-1.231-.608-2.441-1.258-3.67-1.873-6.513-3.26-7.362-2.954-10.105 3.97a18.73 18.73 0 00-1.171 4.689c-.38 3.273-2.019 5.443-5.272 5.9-3.313.467-5.339-1.405-6.64-4.344-1.106-2.5-1.928-5.393-3.757-7.241a31.966 31.966 0 00-8.933-6.244c-2.803-1.327-4.834-2.577-5.516-5.867-1.029-4.97-8.465-7.778-12.655-4.948-2.562 1.73-5.02 3.614-7.948 5.735 2.143 2.08 4.086 3.974 6.037 5.859 2.368 2.286 3.646 4.92 1.804 8.032-1.766 2.981-4.448 3.782-7.75 2.538a17.716 17.716 0 00-3.07-.56c-.583 4.451-2.512 7.35-7.452 7.201-.649-.02-1.522 1.078-1.97 1.846-1.317 2.264-2.069 5.01-3.814 6.827a9.807 9.807 0 01-6.197 2.978 4.876 4.876 0 01-4.802-5.286c.222-8.24-2.956-15.255-6.873-22.218C.576 144.161-.283 135.133.07 126.08a7.22 7.22 0 013.7-5.3c1.722-.698 4.758.02 6.357 1.244 2.935 2.245 5.237 5.317 7.851 8.095zm59.905-22.1a17.99 17.99 0 10-18.16 18.012 18.053 18.053 0 0018.16-18.012z"/><path d="M161.244 56.59a19.426 19.426 0 01-4.425-.666c-9.423-3.736-16.921.095-23.956 5.894-.963.793-1.819 1.718-2.796 2.49-2.91 2.3-6.14 2.225-8.431-.14-2.394-2.472-2.348-5.972.376-8.683 6.502-6.473 14.016-11.008 23.221-12.79a23.606 23.606 0 0112.81 1.188c2.38.847 4.392.875 6.633-.761a5.557 5.557 0 017.975 1.298 5.874 5.874 0 01-.838 8.113 14.141 14.141 0 01-10.57 4.056zM186.013 30.042a5.972 5.972 0 11-6.072 5.866 6.03 6.03 0 016.072-5.866zM251.889 42.118a5.97 5.97 0 11-5.867-6.075 6.038 6.038 0 015.867 6.075zM65.863 108.052a5.97 5.97 0 11-5.953-5.99 6.033 6.033 0 015.953 5.99z"/></svg><svg data-name="Layer 1" viewBox="0 0 306.625 306.581" id="phone" xmlns="http://www.w3.org/2000/svg"><path d="M83.836 0c3.825 1.583 8.025 2.608 11.395 4.87 6.594 4.424 9.903 11.063 10.17 19.043.455 13.68 1.524 27.286 4.782 40.625 1.323 5.415 2.961 10.753 4.343 16.156 2.128 8.322.14 15.646-5.116 22.406-8.632 11.103-17.036 22.384-25.444 33.66a3.266 3.266 0 00-.1 2.852c17.312 33.06 41.632 59.48 74.186 78.067 2.943 1.68 5.83 3.474 8.86 4.979a3.57 3.57 0 003.094-.163c11.282-8.4 22.563-16.806 33.667-25.438a24.934 24.934 0 0121.93-4.891c8.052 1.85 15.944 4.587 24.075 5.857 10.414 1.627 20.978 2.478 31.51 3.108 12.295.736 21.22 7.06 24.403 18.37a29.103 29.103 0 01.967 7.676q.121 26.795.03 53.591c-.05 15.368-10.818 25.977-26.101 25.81-56.663-.617-108.74-16.385-155.717-48.083-45.45-30.668-79.24-71.307-101.332-121.533a268.674 268.674 0 01-21.083-76.98C1.433 52.182.778 44.349 0 36.53V21.558c1.711-3.94 2.951-8.184 5.242-11.754C8.959 4.011 15.034 1.474 21.558 0z"/></svg><svg viewBox="0 0 19.8 20.5" id="phone-call" xmlns="http://www.w3.org/2000/svg"><path d="M12.8 20.5c-.3 0-.6-.1-.8-.1-1.1-.2-2.2-.7-3.2-1.3-1.6-.9-2.9-2.2-4.1-3.5-1.2-1.4-2.4-2.8-3.3-4.4C.8 10 .3 8.7.1 7.4c-.2-1.5 0-3 .7-4.3.4-.7.9-1.3 1.6-1.8.3-.4.6-.7.9-.9.7-.5 1.4-.5 1.9.1.3.3.6.7.9 1.1.5.7 1 1.5 1.3 2.3.3.9.2 1.7-.5 2.3-.3.4-.7.7-1.1 1-.8.6-1 1.3-.6 2.2.2.9.8 1.6 1.3 2.3.7.9 1.5 1.8 2.4 2.5.5.4 1 .8 1.7.9.6.1 1 0 1.5-.4.4-.4.8-.8 1.3-1.2.7-.6 1.5-.6 2.3-.2.3.1.5.3.8.5.8.7 1.7 1.3 2.3 2.2.5.7.5 1.4-.2 2-.6.6-1.2 1.2-2 1.6-.8.4-1.6.7-2.5.8h-.2c-.4.1-.7.1-1.1.1z"/></svg><svg data-name="Layer 1" viewBox="0 0 41.161 42.643" id="search" xmlns="http://www.w3.org/2000/svg"><path d="M18.332 0c.86.136 1.729.23 2.58.414A17.171 17.171 0 0134.16 14.262a16.93 16.93 0 01-3.548 13.747c-.068.086-.132.176-.212.284l3.58 3.724 6.463 6.723a2.248 2.248 0 11-3.233 3.114q-4.91-5.097-9.813-10.202c-.096-.1-.183-.207-.293-.332-.327.207-.626.4-.929.586A17.21 17.21 0 1110.46 1.384 16.56 16.56 0 0115.762.07a2.317 2.317 0 00.32-.07zm-1.108 29.94A12.723 12.723 0 104.495 17.25a12.727 12.727 0 0012.73 12.69z"/></svg><svg data-name="Layer 1" viewBox="0 0 318.689 318.697" id="shine" xmlns="http://www.w3.org/2000/svg"><path d="M159.436 80.22c8.792 16.08 17.13 31.568 25.767 46.887a17.628 17.628 0 006.376 6.379c14.45 8.165 29.08 16.014 43.642 23.983.942.516 1.829 1.134 3.195 1.988-6.087 3.356-11.722 6.481-17.375 9.574-10.182 5.573-20.426 11.036-30.518 16.765a13.41 13.41 0 00-4.83 4.892c-8.106 14.484-16.013 29.08-23.988 43.637-.65 1.185-1.336 2.35-2.323 4.083-.89-1.518-1.576-2.622-2.2-3.761-7.91-14.45-15.723-28.956-23.808-43.308a16.2 16.2 0 00-5.843-5.897c-14.347-8.095-28.853-15.909-43.299-23.827-1.156-.634-2.264-1.357-3.9-2.344 8.982-4.917 17.481-9.568 25.979-14.222 7.225-3.957 14.523-7.79 21.626-11.955a14.468 14.468 0 005.125-5.107c8.118-14.478 16.015-29.079 23.99-43.637.645-1.179 1.343-2.33 2.384-4.13zM303.931 74.188c-7.912 4.332-15.267 8.49-22.755 12.393a14.946 14.946 0 00-6.703 6.687c-3.84 7.394-7.957 14.645-12.335 22.633-2.395-4.304-4.912-7.875-6.477-11.823a40.042 40.042 0 00-23.488-23.498c-3.907-1.553-7.46-4-11.797-6.38 4.624-2.544 8.617-5.3 13.011-7.046 10.467-4.157 17.422-11.437 21.69-21.747 1.753-4.236 4.358-8.12 6.825-12.618a29.147 29.147 0 011.777 2.503c3.68 6.666 7.13 13.471 11.089 19.967a19.494 19.494 0 006.393 6.354c7.265 4.344 14.807 8.223 22.77 12.575zM262.108 286.31c-4.5-8.21-8.46-15.82-12.83-23.185a17.432 17.432 0 00-5.883-5.876c-7.397-4.371-15.037-8.332-23.062-12.714 8.018-4.38 15.65-8.34 23.04-12.709a17.442 17.442 0 005.893-5.865c4.374-7.369 8.336-14.981 12.83-23.18 3.486 6.34 7.011 11.915 9.699 17.868a26.85 26.85 0 0014.074 14.103c5.999 2.722 11.627 6.26 18.012 9.763-4.864 2.687-9.08 5.584-13.71 7.458a35.843 35.843 0 00-20.523 20.364c-1.913 4.575-4.703 8.783-7.54 13.972zM14.824 244.53c8.414-4.607 16.24-8.76 23.908-13.185a13.168 13.168 0 004.612-4.612c4.422-7.652 8.572-15.461 13.182-23.87 1.9 3.373 3.885 6.088 5.055 9.119 5.131 13.297 14.262 22.406 27.545 27.553 3.07 1.19 5.851 3.13 9.265 5-8.303 4.548-16.124 8.69-23.776 13.124a13.964 13.964 0 00-4.885 4.83c-4.425 7.615-8.546 15.406-13.151 23.81-3.807-6.954-7.52-13.128-10.622-19.595a23.192 23.192 0 00-11.554-11.547c-6.522-3.083-12.715-6.86-19.579-10.628zM56.58 115.962c-4.273-7.79-8.295-14.693-11.872-21.82a17.85 17.85 0 00-8.272-8.2c-7.094-3.649-14.035-7.594-21.63-11.738 5.213-2.85 9.79-5.856 14.75-7.954a33.638 33.638 0 0018.942-18.912c2.037-4.918 5.072-9.424 7.894-14.548.739 1.049 1.34 1.752 1.777 2.546 3.555 6.45 7.198 12.856 10.564 19.403a15.815 15.815 0 007.19 7.218c7.421 3.81 14.664 7.966 22.447 12.238-8.12 4.458-15.847 8.509-23.35 12.937a16.552 16.552 0 00-5.601 5.623c-4.354 7.38-8.33 14.983-12.84 23.207zM21.704 137.645c3.775 10.998 10.98 17.708 22.185 21.315-5.517 3.2-10.72 5.063-14.257 8.595-3.485 3.48-5.283 8.649-8.344 13.987C17.64 170.662 10.925 163.317 0 159.464c10.665-4.09 17.79-11.191 21.704-21.82zM181.053 297.05c-10.51 4.053-17.752 10.75-21.55 21.647-4.258-10.452-11.034-17.89-21.95-21.568 10.675-3.931 17.866-10.801 21.736-21.668 4.088 10.602 10.948 17.818 21.764 21.59zM137.066 21.24c11.237-3.56 18.275-10.468 22.19-21.24 4.138 10.564 11.067 17.86 22.436 21.225-5.462 3.15-10.69 5.018-14.268 8.555-3.48 3.438-5.268 8.586-8.048 13.416-2.813-4.822-4.69-10.008-8.223-13.538-3.486-3.483-8.645-5.29-14.087-8.418zM318.69 159.342c-10.84 3.96-17.687 11.211-21.606 21.854-3.852-10.709-10.713-17.92-21.6-21.808 10.764-4 17.822-11.026 21.555-21.86 4.02 10.545 10.731 17.925 21.65 21.814z"/></svg><svg viewBox="0 0 13.9 7.9" id="short-arrow-bottom" xmlns="http://www.w3.org/2000/svg"><path d="M7 7.7L.6 1.3C.4 1.1.4.8.6.6s.5-.2.7 0L7 6.3 12.6.7c.2-.2.5-.2.7 0s.2.5 0 .7L7 7.7z"/></svg><svg viewBox="0 0 7.3 13" id="short-arrow-left" xmlns="http://www.w3.org/2000/svg"><path d="M0 6.6L6.4.2c.2-.2.5-.2.7-.1.2.2.2.5 0 .7L1.4 6.6 7 12.2c.2.2.2.5 0 .7s-.5.2-.7 0L0 6.6z"/></svg><svg viewBox="0 0 7.3 13" id="short-arrow-right" xmlns="http://www.w3.org/2000/svg"><path d="M7.3 6.4L.9 12.8c-.2.2-.5.2-.7 0-.2-.2-.2-.5 0-.7l5.7-5.7L.3.8C.1.6.1.3.3.1s.5-.1.7 0l6.3 6.3z"/></svg><svg data-name="Layer 2" viewBox="0 0 284.943 272.562" id="star" xmlns="http://www.w3.org/2000/svg"><path d="M156.787 8.899l31.66 64.148a15.964 15.964 0 0012.019 8.733l70.792 10.287a15.964 15.964 0 018.847 27.229l-51.225 49.933a15.964 15.964 0 00-4.591 14.13l12.092 70.505a15.964 15.964 0 01-23.162 16.83l-63.319-33.29a15.964 15.964 0 00-14.857 0l-63.318 33.29a15.964 15.964 0 01-23.163-16.83l12.093-70.505a15.964 15.964 0 00-4.591-14.13L4.838 119.296a15.964 15.964 0 018.848-27.23L84.478 81.78a15.964 15.964 0 0012.02-8.733L128.155 8.9a15.964 15.964 0 0128.631 0z"/></svg><svg data-name="Layer 1" viewBox="0 0 383.287 384" id="telegram-fill" xmlns="http://www.w3.org/2000/svg"><path d="M383.287 180v24c-.212.965-.544 1.922-.62 2.898-2.542 33.05-12.735 63.554-31.257 90.993-30.536 45.24-72.69 73.101-126.375 83.132-7.07 1.321-14.262 2-21.397 2.977h-23.953c-1.208-.228-2.409-.5-3.623-.676-8.01-1.16-16.13-1.8-24.015-3.528-49.718-10.892-89.415-37.27-118.256-79.204C4.507 258.013-5.507 210.73 2.83 159.75c6.438-39.369 23.974-73.336 51.785-101.82C83.365 28.486 118.067 10.04 158.64 2.943 165.613 1.722 172.668.97 179.685 0h23.953c.96.21 1.913.458 2.88.625 11.885 2.048 23.999 3.215 35.62 6.267C313.043 25.515 368.522 86.75 380.37 158.908c1.15 7.001 1.953 14.06 2.917 21.092zm-194.261 72.887c.952.642 1.796 1.167 2.594 1.756 14.359 10.595 28.704 21.207 43.069 31.794 10.211 7.526 17.238 4.841 19.867-7.547 7.176-33.817 14.363-67.632 21.537-101.45 3.212-15.139 6.488-30.265 9.557-45.433 1.022-5.053 1.765-10.413-2.757-14.333-4.427-3.838-9.131-1.714-13.724.062-45.653 17.658-91.314 35.291-136.966 52.95-15.682 6.066-31.378 12.096-46.987 18.344-3.433 1.374-7.394 3.351-7.016 7.795.36 4.234 4.485 5.316 7.93 6.407 14.363 4.553 28.776 8.949 43.117 13.57 2.641.852 4.608.535 6.93-.938 27.375-17.379 54.817-34.653 82.24-51.957 8.016-5.058 15.994-10.178 24.066-15.146 2.227-1.371 4.675-2.993 7.946-.375-1.63 1.657-3 3.197-4.517 4.572-27.76 25.148-55.519 50.295-83.345 75.368-2.108 1.899-3.105 3.844-3.177 6.718-.139 5.49-.728 10.968-1.105 16.453-.641 9.324-1.262 18.649-1.893 27.987 4.069.07 5.65-.58 8.87-3.676 7.915-7.61 15.807-15.242 23.764-22.92z"/></svg><svg data-name="Layer 1" viewBox="0 0 408.807 408.914" id="whatsapp-fill" xmlns="http://www.w3.org/2000/svg"><path d="M216.368 408.914H194.01c-5.802-.649-11.623-1.165-17.403-1.969A199.726 199.726 0 0195.34 377.11a7.402 7.402 0 00-7.02-.911c-13.614 4.508-27.288 8.833-40.947 13.205-11.076 3.545-22.16 7.065-33.811 10.778.524-1.704.84-2.814 1.205-3.907 7.422-22.161 14.724-44.365 22.39-66.442 1.433-4.126.925-7.018-1.494-10.513A197.857 197.857 0 01.87 222.53c-3.833-43.695 4.911-84.92 27.935-122.293 38.22-62.04 94.21-95.688 167.007-99.898 40.296-2.33 78.228 7.377 112.747 28.424 53.071 32.36 85.608 79.264 97.064 140.513 1.433 7.666 2.14 15.469 3.184 23.208v23.959c-.326 2.873-.658 5.745-.978 8.62-4.882 43.847-21.57 82.57-51.064 115.424-31.514 35.106-70.608 57.01-117.16 65.252-7.692 1.362-15.489 2.131-23.237 3.175zm54.116-89.246c6.568-1.269 12.23-1.703 17.434-3.477 28.952-9.864 38.796-23.854 39.654-50.483.135-4.212-1.337-7.094-5.206-8.933-15.233-7.243-30.362-14.707-45.651-21.827-7.812-3.638-12.389-2.15-17.57 4.81-3.968 5.333-7.845 10.737-11.942 15.97-6.23 7.96-10.622 9-20.087 5.135-33.653-13.746-58.673-37.324-77.446-68.015-3.764-6.154-3.56-8.745 1.217-14.28 3.823-4.431 7.78-8.746 11.592-13.187 4.7-5.476 6.68-11.39 2.803-18.26a57.288 57.288 0 01-2.474-5.87c-5.813-13.69-11.516-27.429-17.57-41.012-.978-2.194-3.268-4.818-5.4-5.314-10.887-2.532-21.87-2.7-31.232 4.49a56.452 56.452 0 00-18.396 25.589c-7.483 20.081-5.085 39.64 3.193 58.926 6.09 14.189 14.978 26.618 24.072 38.907a282.765 282.765 0 0053.27 55.294c21.836 17.04 46.75 27.762 72.998 35.614 8.972 2.684 18.325 4.096 26.74 5.923z"/></svg><svg data-name="Layer 1" viewBox="0 0 636.639 637.95" id="whatsapp-stroked" xmlns="http://www.w3.org/2000/svg"><path d="M0 637.95c11.6-42.436 22.846-83.587 34.095-124.737 3.09-11.305 6.413-22.553 9.133-33.947a14.111 14.111 0 00-1.02-9.268C12.373 415.804-1.279 357.696 3.368 296.182 11.198 192.496 58.938 110.886 144.915 52.61 202.246 13.75 266.556-4.175 335.58.819c125.007 9.044 217.606 70.456 269.915 183.94 51.03 110.71 38.745 219.248-32.41 318.564-51.117 71.345-122.17 112.98-209.171 125.96-67.317 10.044-131.283-1.514-191.847-32.514a15.278 15.278 0 00-9.918-.89Q84.737 615.83 7.44 636.225c-2.082.545-4.193.976-7.439 1.725zm75.908-75.144c1.965-.37 2.815-.477 3.636-.692 29.088-7.641 58.208-15.163 87.23-23.049 5.974-1.623 10.689-.968 16.1 2.256 58.397 34.794 121.32 46.274 187.81 32.654 140.65-28.81 230.912-161.762 206.85-303.138-20.43-120.031-124.114-211.924-245.417-217.04-67.08-2.828-127.397 16.394-179.282 59.142-59.278 48.84-91.638 112.254-96.377 188.935-3.489 56.466 10.71 108.834 41.244 156.546 3.53 5.514 4.244 10.24 2.433 16.551-8.284 28.873-16.027 57.902-24.227 87.836z"/><path d="M215.948 170.807c14.36-3.72 20.877 5.021 25.693 17.56 7.052 18.362 14.842 36.447 22.592 54.533 2.609 6.087 2.532 11.568-1.412 16.87-6.34 8.52-12.518 17.178-19.215 25.411-4.207 5.173-4.87 9.847-1.422 15.679 25.806 43.634 61.969 75.14 109.152 93.908 6.13 2.438 11.19 1.505 15.39-3.715 8.049-10.003 16.411-19.768 24.11-30.031 4.469-5.956 9.688-7.776 16.123-4.765 22.42 10.491 44.814 21.053 66.914 32.191 2.68 1.352 5.016 6.407 4.96 9.703-.572 33.528-10.43 49.722-46.47 64.818-20.391 8.541-41.513 6.441-62.5.592-75.957-21.172-131.947-68.933-176.796-131.82-14.099-19.77-26.836-40.17-32.192-64.198-7.635-34.248.824-63.926 26.056-88.622 7.967-7.798 17.604-9.684 29.017-8.114z"/></svg></svg>