<?xml version="1.0" encoding="UTF-8"?>
<svg id="Layer_1" data-name="Layer 1" xmlns="http://www.w3.org/2000/svg" xmlns:xlink="http://www.w3.org/1999/xlink" viewBox="0 0 142.34717 44.65771">
  <defs>
    <style>
      .cls-1 {
        fill: url(#linear-gradient);
      }
    </style>
    <linearGradient id="linear-gradient" x1="0" y1="22.32886" x2="142.34717" y2="22.32886" gradientTransform="matrix(1, 0, 0, 1, 0, 0)" gradientUnits="userSpaceOnUse">
      <stop offset="0" stop-color="#8cc63f"/>
      <stop offset="1" stop-color="#39b54a"/>
    </linearGradient>
  </defs>
  <path class="cls-1" d="M16.49658,40.11865l-1.0166-3.42139H7.58789l-1.0166,3.42139H0L7.82471,16.40723h7.38428l7.8252,23.71143h-6.5376Zm-7.35059-8.6377h4.77588l-2.40479-8.06201-2.37109,8.06201Zm32.01025,3.31934h2.20166v9.85742h-5.41992v-4.53906h-8.80713v4.53906h-5.41943v-9.85742h2.03223c.85791-1.3999,1.28711-3.31934,1.28711-5.7583v-5.85986h14.12549v11.61816Zm-9.58643,0h4.09863v-6.60498h-3.1499v.84668c0,2.2583-.31641,4.17822-.94873,5.7583Zm25.3374-11.61816h5.62305v16.93652h-5.62305v-1.55811c-1.15137,1.35498-2.75537,2.03223-4.80957,2.03223-2.25879,0-4.1499-.85205-5.67383-2.55713-1.52441-1.70508-2.28662-3.83301-2.28662-6.38525,0-2.55176,.76221-4.67969,2.28662-6.38525,1.52393-1.70459,3.41504-2.55762,5.67383-2.55762,2.0542,0,3.6582,.67773,4.80957,2.03271v-1.55811Zm-6.13086,11.14404c.65479,.67773,1.5127,1.01611,2.57422,1.01611s1.91943-.33838,2.57471-1.01611c.6543-.67725,.98193-1.56934,.98193-2.67578s-.32764-1.99854-.98193-2.67627c-.65527-.67725-1.51318-1.01611-2.57471-1.01611s-1.91943,.33887-2.57422,1.01611c-.65527,.67773-.98242,1.56982-.98242,2.67627s.32715,1.99854,.98242,2.67578Zm33.7041-11.14404v16.93652h-5.41992v-8.16357l-3.62402,5.62305h-.61035l-3.59082-5.58887v8.12939h-5.45312V23.18213h5.45312l3.89551,6.09717,3.92969-6.09717h5.41992Zm11.44971,17.41064c-2.50732,0-4.64111-.86377-6.40283-2.59131s-2.64258-3.84473-2.64258-6.35107c0-2.50684,.88086-4.62402,2.64258-6.35156s3.89551-2.59131,6.40283-2.59131c2.52832,0,4.66797,.86377,6.41895,2.59131,1.75,1.72754,2.625,3.84473,2.625,6.35156,0,2.50635-.875,4.62354-2.625,6.35107-1.75098,1.72754-3.89062,2.59131-6.41895,2.59131Zm0-5.41943c.99316,0,1.81152-.32715,2.45508-.98242,.64453-.65479,.96582-1.50146,.96582-2.54053,0-1.03857-.32129-1.88525-.96582-2.54053-.64355-.65479-1.46191-.98242-2.45508-.98242-.97217,0-1.77881,.32764-2.42236,.98242-.64355,.65527-.96582,1.50195-.96582,2.54053,0,1.03906,.32227,1.88574,.96582,2.54053,.64355,.65527,1.4502,.98242,2.42236,.98242Zm24.52344-3.69238c1.58105,.74512,2.37207,1.99854,2.37207,3.75977,0,1.49072-.50879,2.67627-1.52441,3.55664-1.0166,.88086-2.48438,1.32129-4.4043,1.32129h-9.4502V23.18213h8.875c1.89648,0,3.35352,.44043,4.36914,1.3208,1.0166,.88086,1.52441,2.06641,1.52441,3.55664,0,1.49072-.58691,2.63135-1.76172,3.42139Zm-4.97852-4.09863h-2.64258v2.23535h2.64258c.90234,0,1.35449-.36084,1.35449-1.0835,0-.76758-.45215-1.15186-1.35449-1.15186Zm.44043,8.46826c.87988,0,1.32031-.39502,1.32031-1.18555,0-.74512-.44043-1.11768-1.32031-1.11768h-3.08301v2.30322h3.08301Zm17.37695,4.74219c-2.50684,0-4.64062-.86377-6.40234-2.59131s-2.64258-3.84473-2.64258-6.35107c0-2.50684,.88086-4.62402,2.64258-6.35156s3.89551-2.59131,6.40234-2.59131c2.52832,0,4.66797,.86377,6.41895,2.59131,1.75,1.72754,2.625,3.84473,2.625,6.35156,0,2.50635-.875,4.62354-2.625,6.35107-1.75098,1.72754-3.89062,2.59131-6.41895,2.59131Zm0-5.41943c.99316,0,1.81152-.32715,2.45508-.98242,.64453-.65479,.96582-1.50146,.96582-2.54053,0-1.03857-.32129-1.88525-.96582-2.54053-.64355-.65479-1.46191-.98242-2.45508-.98242-.97168,0-1.77832,.32764-2.42188,.98242-.64355,.65527-.96582,1.50195-.96582,2.54053,0,1.03906,.32227,1.88574,.96582,2.54053,.64355,.65527,1.4502,.98242,2.42188,.98242ZM59.41406,6.55127v14.68896h-4.81787v-4.17188h-.67578l-2.79102,4.17188h-5.55225l3.4375-4.90625c-.84277-.46973-1.49414-1.10156-1.95361-1.89453-.46045-.79346-.69043-1.6499-.69043-2.5708,0-1.52734,.50391-2.79541,1.5127-3.8042s2.37451-1.51318,4.09814-1.51318h7.43262Zm-6.90381,4.11279c-.41113,0-.74463,.11328-.99854,.33789-.25488,.22559-.38232,.54346-.38232,.95508,0,.3916,.12744,.69531,.38232,.91064,.25391,.21582,.5874,.32324,.99854,.32324h2.08594v-2.52686h-2.08594Zm17.03906,11.0166c-2.42871,0-4.37256-.74902-5.83154-2.24707-1.45898-1.49854-2.18848-3.46143-2.18848-5.89014,0-2.46777,.39648-4.42139,1.18994-5.86084,.79297-1.43994,2.20801-2.65869,4.24512-3.65771,2.19336-1.07715,3.55469-1.82129,4.0835-2.23291,.56787-.46973,1.0083-1.06689,1.32178-1.79199l3.99561,2.2915c-.29395,1.09717-.84766,1.96826-1.66016,2.61475s-2.03174,1.29248-3.65723,1.93896c-1.29248,.50928-2.21826,.96484-2.77637,1.36621s-.95459,.87646-1.18994,1.4248c.97949-.84229,2.24268-1.26367,3.79004-1.26367,1.62549,0,3.07959,.58789,4.3623,1.7627,1.28271,1.17529,1.92432,2.73242,1.92432,4.67139,0,1.99756-.69043,3.64258-2.0708,4.93555-1.38086,1.29248-3.22705,1.93848-5.53809,1.93848Zm-2.08545-4.99414c.54785,.50977,1.22363,.76416,2.02686,.76416,.80273,0,1.46387-.25,1.98291-.74951,.51904-.49902,.77881-1.12061,.77881-1.86523,0-.76367-.26953-1.39551-.80811-1.89502-.53906-.49951-1.21924-.74902-2.0415-.74902-.74463,0-1.39111,.23047-1.93896,.69043-.54883,.46045-.82275,1.08252-.82275,1.86523,0,.78369,.27393,1.43018,.82275,1.93896Zm25-10.13525v14.68896h-4.87646V11.22266h-2.93799v3.93652c0,2.31104-.57275,3.96582-1.71875,4.96484-1.14551,.99854-2.90381,1.37061-5.27295,1.11621v-4.52441c.70508,.19629,1.23389,.10303,1.58643-.27881s.52881-1.04297,.52881-1.98291V6.55127h12.69092Zm9.9292,15.1001c-2.17383,0-4.02441-.74902-5.55273-2.24707-1.52686-1.49854-2.29053-3.33447-2.29053-5.5083,0-2.17432,.76367-4.01025,2.29053-5.5083,1.52832-1.49854,3.37891-2.24756,5.55273-2.24756,2.19336,0,4.04883,.74902,5.56738,2.24756,1.51758,1.49805,2.27637,3.33398,2.27637,5.5083,0,2.17383-.75879,4.00977-2.27637,5.5083-1.51855,1.49805-3.37402,2.24707-5.56738,2.24707Zm0-4.7002c.86133,0,1.57227-.28369,2.12988-.85205,.55859-.56787,.83691-1.30225,.83691-2.20312s-.27832-1.63525-.83691-2.20361c-.55762-.56787-1.26855-.85205-2.12988-.85205-.8418,0-1.54199,.28418-2.10059,.85205-.55762,.56836-.83691,1.30273-.83691,2.20361s.2793,1.63525,.83691,2.20312c.55859,.56836,1.25879,.85205,2.10059,.85205Zm24.50098,4.28906h-5.46484l-4.1709-6.25732v6.25732h-4.87695V6.55127h4.87695v6.14014l3.78906-6.14014h5.64062l-4.93555,7.34473,5.1416,7.34424Zm7.60938,.41113c-2.17383,0-4.02441-.74902-5.55273-2.24707-1.52734-1.49854-2.29102-3.33447-2.29102-5.5083,0-2.17432,.76367-4.01025,2.29102-5.5083,1.52832-1.49854,3.37891-2.24756,5.55273-2.24756,2.19336,0,4.04883,.74902,5.56738,2.24756,1.51758,1.49805,2.27637,3.33398,2.27637,5.5083,0,2.17383-.75879,4.00977-2.27637,5.5083-1.51855,1.49805-3.37402,2.24707-5.56738,2.24707Zm0-4.7002c.86133,0,1.57227-.28369,2.12988-.85205,.55859-.56787,.83691-1.30225,.83691-2.20312s-.27832-1.63525-.83691-2.20361c-.55762-.56787-1.26855-.85205-2.12988-.85205-.8418,0-1.54199,.28418-2.10059,.85205-.55762,.56836-.83691,1.30273-.83691,2.20361s.2793,1.63525,.83691,2.20312c.55859,.56836,1.25879,.85205,2.10059,.85205Z"/>
</svg>