<svg id="Layer_1" data-name="Layer 1" xmlns="http://www.w3.org/2000/svg" xmlns:xlink="http://www.w3.org/1999/xlink" viewBox="0 0 180.31885 55.46206">
  <defs>
    <style>
      .cls-1 {
        fill: url(#linear-gradient);
      }
    </style>
    <linearGradient id="linear-gradient" y1="27.73103" x2="180.31885" y2="27.73103" gradientUnits="userSpaceOnUse">
      <stop offset="0" stop-color="#8cc63f"/>
      <stop offset="1" stop-color="#39b54a"/>
    </linearGradient>
  </defs>
  <path class="cls-1" d="M6.7583,49.35464H0l12.01074-28.499h5.333l11.96973,28.499H22.59619L20.6416,44.55093H8.71289Zm11.522-10.585-3.58252-8.75391-3.583,8.75391ZM35.99072,55.46206H30.04639V43.65444h3.46093q1.01661-1.54687,1.01758-6.92089V28.18374H52.80518v15.4707h3.7456V55.46206H50.60645V49.35464H35.99072Zm3.542-11.80762h7.32813V33.84292h-6.3916v3.37891A19.61885,19.61885,0,0,1,39.53271,43.65444ZM57.813,38.76968a11.34957,11.34957,0,0,1,2.8501-7.93945,9.21832,9.21832,0,0,1,7.16552-3.17579,9.52794,9.52794,0,0,1,5.86231,1.95411V28.18374h6.0664v21.1709h-6.0664V47.88882a9.645,9.645,0,0,1-13.02783-1.18066A11.53449,11.53449,0,0,1,57.813,38.76968Zm11.07373-5.08984a4.40762,4.40762,0,0,0-3.3584,1.46582,5.06318,5.06318,0,0,0-1.36426,3.583,5.16791,5.16791,0,0,0,1.36426,3.66407,4.55783,4.55783,0,0,0,6.69727,0,5.13029,5.13029,0,0,0,1.38427-3.66407,4.93732,4.93732,0,0,0-1.38427-3.583A4.42964,4.42964,0,0,0,68.88672,33.67984ZM89.20264,39.339V49.35464H83.25879V28.18374h5.94385L95.51318,38.9728l6.26953-10.78906h5.94434v21.1709h-5.94434V39.258l-4.4375,7.6543H93.64062Zm24.59082,7.36914a10.78616,10.78616,0,0,1-3.21582-7.93848,10.65283,10.65283,0,0,1,3.21582-7.89844,11.76118,11.76118,0,0,1,16.16406,0,10.58479,10.58479,0,0,1,3.25684,7.89844,10.80326,10.80326,0,0,1-3.25684,7.93848,11.8718,11.8718,0,0,1-16.16406,0Zm8.10254-2.84961a4.60782,4.60782,0,0,0,3.501-1.46582,5.007,5.007,0,0,0,1.46582-3.623,4.8721,4.8721,0,0,0-1.46582-3.583,4.55108,4.55108,0,0,0-3.501-1.50683,4.73992,4.73992,0,0,0-3.542,1.46582,5.32007,5.32007,0,0,0,0,7.24707A4.73633,4.73633,0,0,0,121.896,43.85855Zm14.127-15.67481h11.64453a7.54023,7.54023,0,0,1,5.08887,1.71,5.05368,5.05368,0,0,1,2.07617,4.15235,5.42339,5.42339,0,0,1-1.832,4.1123,5.312,5.312,0,0,1,2.80957,4.68262,6.12373,6.12373,0,0,1-2.07617,4.68164,7.64532,7.64532,0,0,1-5.252,1.832H136.023Zm11.48144,5.415h-5.5371v2.76856h5.5371a1.24547,1.24547,0,0,0,1.38477-1.2627Q148.88916,33.59877,147.50439,33.59878Zm-5.5371,7.084V43.9396h6.18847a1.2168,1.2168,0,0,0,1.32324-.77344,1.98687,1.98687,0,0,0,0-1.71,1.2179,1.2179,0,0,0-1.32324-.77343ZM160.898,46.70816a10.78616,10.78616,0,0,1-3.21582-7.93848,10.65283,10.65283,0,0,1,3.21582-7.89844,11.76118,11.76118,0,0,1,16.16406,0,10.58479,10.58479,0,0,1,3.25684,7.89844,10.80326,10.80326,0,0,1-3.25684,7.93848,11.8718,11.8718,0,0,1-16.16406,0Zm8.10254-2.84961a4.60782,4.60782,0,0,0,3.501-1.46582,5.007,5.007,0,0,0,1.46583-3.623,4.8721,4.8721,0,0,0-1.46583-3.583,4.55108,4.55108,0,0,0-3.501-1.50683,4.73989,4.73989,0,0,0-3.542,1.46582,5.32,5.32,0,0,0,0,7.24707A4.7363,4.7363,0,0,0,169.00049,43.85855ZM70.801,17.97614l-4.69676,7.97469H60.12369l5.13617-8.78557a7.63173,7.63173,0,0,1-3.362-2.82154,7.48172,7.48172,0,0,1-1.23375-4.20638A7.29467,7.29467,0,0,1,63.06324,4.5622a8.42107,8.42107,0,0,1,6.01454-2.26456H80.161V25.95083H74.78836V17.97614Zm-1.72324-4.93323h5.71058v-5.812H69.07778a2.72212,2.72212,0,0,0-2.02719.82787,2.8528,2.8528,0,0,0-.81088,2.07861,2.84926,2.84926,0,0,0,.81088,2.07771A2.71878,2.71878,0,0,0,69.07778,13.04291Zm13.85425.27q0-5.91263,2.7366-9.00461Q88.4057,1.21722,94.31876.60883L97.25831.304,100.06376,0V5.00117l-5.60956.574q-6.28476.64236-6.69042,4.93323a6.54446,6.54446,0,0,1,5.57513-2.56764,8.36544,8.36544,0,0,1,6.251,2.70353,9.147,9.147,0,0,1,2.6016,6.589,8.8951,8.8951,0,0,1-2.63558,6.555,9.51422,9.51422,0,0,1-13.75187-.70986Q82.93158,19.80218,82.932,13.31291Zm7.16336,6.9108A3.866,3.866,0,0,0,93.001,21.45657a3.78528,3.78528,0,0,0,2.8716-1.21676,4.37925,4.37925,0,0,0,1.18369-3.07455,4.26194,4.26194,0,0,0-1.18369-3.04058,3.73775,3.73775,0,0,0-2.8716-1.25074,3.86684,3.86684,0,0,0-2.90558,1.23376,4.24327,4.24327,0,0,0-1.18279,3.05756A4.24539,4.24539,0,0,0,90.09539,20.22371Zm14.46173,5.72712h-1.52073V21.21966h1.14882a1.54733,1.54733,0,0,0,1.45279-1.11485,12.66783,12.66783,0,0,0,.50691-4.46029V8.37969h15.00261V25.95083H116.2143V13.07689h-5.13617v3.68338q0,4.66278-1.7058,6.926A5.67723,5.67723,0,0,1,104.55712,25.95083Zm21.62465-2.19662a8.95219,8.95219,0,0,1-2.66866-6.58895,8.84042,8.84042,0,0,1,2.66866-6.555,9.76111,9.76111,0,0,1,13.41483,0,8.78262,8.78262,0,0,1,2.70353,6.555,8.96387,8.96387,0,0,1-2.70353,6.589,9.85273,9.85273,0,0,1-13.41483,0Zm6.72485-2.36558a3.82684,3.82684,0,0,0,2.90558-1.21588,4.15873,4.15873,0,0,0,1.21676-3.00749,4.04562,4.04562,0,0,0-1.21676-2.97353,3.778,3.778,0,0,0-2.90558-1.24984,3.93122,3.93122,0,0,0-2.93955,1.21587,4.415,4.415,0,0,0,0,6.015A3.93122,3.93122,0,0,0,132.90662,21.38863ZM149.565,18.01011v7.94072h-4.93322V8.37969H149.565V15.6785l5.44014-7.29881h5.981l-6.285,8.4816,7.02792,9.08954h-6.082Zm14.59673,5.7441a8.95219,8.95219,0,0,1-2.66866-6.58895,8.84042,8.84042,0,0,1,2.66866-6.555,9.76111,9.76111,0,0,1,13.41483,0,8.78262,8.78262,0,0,1,2.70353,6.555,8.96387,8.96387,0,0,1-2.70353,6.589,9.85273,9.85273,0,0,1-13.41483,0Zm6.72485-2.36558a3.82684,3.82684,0,0,0,2.90558-1.21588,4.15873,4.15873,0,0,0,1.21676-3.00749,4.04562,4.04562,0,0,0-1.21676-2.97353,3.778,3.778,0,0,0-2.90558-1.24984,3.93122,3.93122,0,0,0-2.93955,1.21587,4.415,4.415,0,0,0,0,6.015A3.93122,3.93122,0,0,0,170.88654,21.38863Z"/>
</svg>
