<svg id="Layer_1" data-name="Layer 1" xmlns="http://www.w3.org/2000/svg" viewBox="0 0 1394.47461 168.23438">
  <defs>
    <style>
      .cls-1 {
        fill: #ffcb1a;
      }

      .cls-2 {
        fill: #ff7b00;
      }
    </style>
  </defs>
  <g>
    <g>
      <path class="cls-1" d="M57.93164,12.01709V0H86.26953V12.01709q24.38892.18018,41.07178,15.60352Q144.198,42.86744,144.20068,65.10645q0,22.42089-16.85937,37.66406-16.50366,15.06591-41.07178,15.42383v12.01757H57.93164V118.19434q-24.75073-.356-41.25146-15.42383Q0,87.34717,0,65.10645q0-22.2378,16.68018-37.48584Q33.35961,12.37817,57.93164,12.01709Zm0,78.73682V39.2793a28.71136,28.71136,0,0,0-20.08789,7.5332,23.16482,23.16482,0,0,0-8.25,18.29395,23.86023,23.86023,0,0,0,8.25,18.29394A29.52909,29.52909,0,0,0,57.93164,90.75391ZM86.26953,39.2793V90.75391a29.53834,29.53834,0,0,0,20.0874-7.35352,23.8689,23.8689,0,0,0,8.25049-18.29394,23.17287,23.17287,0,0,0-8.25049-18.29395A28.71516,28.71516,0,0,0,86.26953,39.2793Z"/>
      <path class="cls-1" d="M184.55518,168.23438H157.65186V34.61572h26.90332v6.27783A42.56243,42.56243,0,0,1,241.769,46.27441q12.73242,14.16943,12.73389,34.97364,0,20.62645-12.73389,34.97363a40.972,40.972,0,0,1-31.5664,13.99023,41.70381,41.70381,0,0,1-25.64746-8.60937ZM205.71875,58.8291a19.41655,19.41655,0,0,0-14.79687,6.45606,22.77537,22.77537,0,0,0-6.00831,16.14257A22.30167,22.30167,0,0,0,190.92188,97.21a19.41406,19.41406,0,0,0,14.79687,6.457,18.94516,18.94516,0,0,0,14.52783-6.457,21.73769,21.73769,0,0,0,6.09766-15.78223,22.78607,22.78607,0,0,0-6.0083-16.14257A19.22571,19.22571,0,0,0,205.71875,58.8291Z"/>
      <path class="cls-1" d="M290.01465,128.59766l.53808-1.43555L255.22021,34.61572H283.02l20.26709,57.57276,20.98437-57.57276h27.79981L312.43408,137.56543q-6.457,16.14111-17.12842,23.40527-10.67284,7.26417-27.88964,7.26368h-3.228V142.58691h3.40771Q284.99,142.58691,290.01465,128.59766Z"/>
      <path class="cls-1" d="M387.22461,85.73145v42.14843H361.03906V34.61572h26.18555V73.35645l28.876-38.74073h31.7456L414.48633,79.63379,451.792,127.87988H419.5083Z"/>
      <path class="cls-1" d="M483.17871,127.87988V59.5459H454.30322V34.61572h83.9375V59.5459h-28.877v68.334Z"/>
    </g>
    <g>
      <path class="cls-2" d="M540.75146,94.16113l27.62012-10.22265A36.6,36.6,0,0,0,581.644,97.83789a37.14072,37.14072,0,0,0,40.624-1.97266A36.0986,36.0986,0,0,0,635.271,76.94336H590.7915V52.01367h43.94141a35.49335,35.49335,0,0,0-34.25684-24.75146,35.60521,35.60521,0,0,0-18.832,5.11133,36.62483,36.62483,0,0,0-13.27246,13.90087L540.75146,36.05078a60.61073,60.61073,0,0,1,23.8545-26.186Q580.38526.00268,600.47607,0q27.98,0,46.99122,18.65283,18.832,18.47535,18.83154,46.45362,0,27.97851-18.83154,46.45214-19.01369,18.65625-46.99122,18.65332-20.269,0-36.0498-9.68554A62.16332,62.16332,0,0,1,540.75146,94.16113Z"/>
      <path class="cls-2" d="M706.294,85.73145v42.14843H680.1084V34.61572H706.294V73.35645l28.876-38.74073H766.916L733.55566,79.63379l37.30567,48.24609H738.57812Z"/>
      <path class="cls-2" d="M866.63672,64.38867l-27.082,7.8916a21.51742,21.51742,0,0,0-7.8916-9.77441A21.12594,21.12594,0,0,0,819.4668,58.8291a20.87975,20.87975,0,0,0-15.60352,6.45606,21.40223,21.40223,0,0,0-6.27734,15.7832A22.22292,22.22292,0,0,0,803.86328,97.21a20.877,20.877,0,0,0,15.60352,6.457,21.10442,21.10442,0,0,0,12.19629-3.67676,21.487,21.487,0,0,0,7.8916-9.77441l27.082,7.8916a47.31872,47.31872,0,0,1-18.11426,23.40528,50.28467,50.28467,0,0,1-29.05566,8.69921q-21.523,0-35.69141-13.99023-14.1709-14.16651-14.16894-34.97363,0-20.98389,14.16894-34.97364Q797.9419,32.2837,819.4668,32.28369a50.2958,50.2958,0,0,1,29.05566,8.69971A47.34423,47.34423,0,0,1,866.63672,64.38867Z"/>
      <path class="cls-2" d="M903.4043,59.5459v68.334H877.21875V34.61572h87.52441v93.26416H938.55762V59.5459Z"/>
      <path class="cls-2" d="M1007.07031,168.23438H980.168V34.61572h26.90234v6.27783a42.56244,42.56244,0,0,1,57.21387,5.38086q12.73389,14.16943,12.73437,34.97364,0,20.62645-12.73437,34.97363a40.9698,40.9698,0,0,1-31.56641,13.99023,41.70687,41.70687,0,0,1-25.64746-8.60937ZM1028.23438,58.8291a19.41729,19.41729,0,0,0-14.79688,6.45606,22.77714,22.77714,0,0,0-6.00781,16.14257A22.30339,22.30339,0,0,0,1013.4375,97.21a19.4148,19.4148,0,0,0,14.79688,6.457,18.94343,18.94343,0,0,0,14.52734-6.457,21.73843,21.73843,0,0,0,6.09863-15.78223,22.78639,22.78639,0,0,0-6.00879-16.14257A19.225,19.225,0,0,0,1028.23438,58.8291Z"/>
      <path class="cls-2" d="M1183.91309,90.93262h-69.41016a22.873,22.873,0,0,0,8.42969,11.83789,23.54883,23.54883,0,0,0,14.34863,4.4834q11.47559,0,18.47266-8.25l26.00683,5.91894a46.8776,46.8776,0,0,1-18.2041,18.5625,52.28885,52.28885,0,0,1-26.45508,6.72656q-21.88329,0-36.40918-13.99023-14.52685-13.98925-14.52734-34.97363,0-20.80371,14.16894-34.79493,14.16651-14.16649,35.333-14.16943,20.98389,0,35.15332,14.16943,14.165,13.98927,14.16895,34.79493A42.95718,42.95718,0,0,1,1183.91309,90.93262Zm-69.23047-19.90821h42.86523a23.38721,23.38721,0,0,0-8.42969-11.47851,22.29619,22.29619,0,0,0-13.45117-4.30469,20.9852,20.9852,0,0,0-12.91406,4.30469A22.7229,22.7229,0,0,0,1114.68262,71.02441Z"/>
      <path class="cls-2" d="M1290.08984,64.38867l-27.082,7.8916a21.51742,21.51742,0,0,0-7.8916-9.77441,21.12591,21.12591,0,0,0-12.19629-3.67676,20.87971,20.87971,0,0,0-15.60351,6.45606,21.4022,21.4022,0,0,0-6.27735,15.7832,22.22288,22.22288,0,0,0,6.27735,16.1416,20.87691,20.87691,0,0,0,15.60351,6.457,21.1044,21.1044,0,0,0,12.19629-3.67676,21.487,21.487,0,0,0,7.8916-9.77441l27.082,7.8916a47.31865,47.31865,0,0,1-18.11425,23.40528,50.28468,50.28468,0,0,1-29.05567,8.69921q-21.52294,0-35.6914-13.99023-14.1709-14.16651-14.16895-34.97363,0-20.98389,14.16895-34.97364,14.1665-13.99071,35.6914-13.99072a50.29581,50.29581,0,0,1,29.05567,8.69971A47.34415,47.34415,0,0,1,1290.08984,64.38867Z"/>
      <path class="cls-2" d="M1394.47461,64.38867l-27.082,7.8916a21.51742,21.51742,0,0,0-7.8916-9.77441,21.12594,21.12594,0,0,0-12.19629-3.67676,20.87975,20.87975,0,0,0-15.60352,6.45606,21.40223,21.40223,0,0,0-6.27734,15.7832,22.22292,22.22292,0,0,0,6.27734,16.1416,20.877,20.877,0,0,0,15.60352,6.457,21.10442,21.10442,0,0,0,12.19629-3.67676,21.487,21.487,0,0,0,7.8916-9.77441l27.082,7.8916a47.31867,47.31867,0,0,1-18.11426,23.40528,50.28467,50.28467,0,0,1-29.05566,8.69921q-21.523,0-35.69141-13.99023-14.17089-14.16651-14.16894-34.97363,0-20.98389,14.16894-34.97364,14.16651-13.99071,35.69141-13.99072a50.2958,50.2958,0,0,1,29.05566,8.69971A47.34417,47.34417,0,0,1,1394.47461,64.38867Z"/>
    </g>
  </g>
</svg>
